<svg width="1170" height="269" viewBox="0 0 1170 269" fill="none" xmlns="http://www.w3.org/2000/svg">
<g clip-path="url(#clip0_89_9)">
<path fill-rule="evenodd" clip-rule="evenodd" d="M6.10352e-05 89.6667H19.5001C39.0001 89.6667 78.0001 89.6667 117 109.593C156 129.519 195 169.37 234 189.296C273 209.222 312 209.222 351 189.296C390 169.37 429 129.519 468 99.6296C507 69.7407 546 49.8148 585 49.8148C624 49.8148 663 69.7407 702 94.6481C741 119.556 780 149.444 819 144.463C858 139.481 897 99.6296 936 84.6852C975 69.7407 1014 79.7037 1053 69.7407C1092 59.7778 1131 29.8889 1150.5 14.9444L1170 0V269H1150.5C1131 269 1092 269 1053 269C1014 269 975 269 936 269C897 269 858 269 819 269C780 269 741 269 702 269C663 269 624 269 585 269C546 269 507 269 468 269C429 269 390 269 351 269C312 269 273 269 234 269C195 269 156 269 117 269C78.0001 269 39.0001 269 19.5001 269H6.10352e-05V89.6667Z" fill="#F1CCAF"/>
<path d="M0 88.5C-0.828427 88.5 -1.5 89.1716 -1.5 90C-1.5 90.8284 -0.828427 91.5 0 91.5V88.5ZM21 90L21.0384 88.5005L21.0192 88.5H21V90ZM40.5 90.5L40.5998 89.0033L40.5691 89.0013L40.5384 89.0005L40.5 90.5ZM70.5 93.5L70.9015 92.0547L70.8013 92.0269L70.6982 92.0132L70.5 93.5ZM97.5 101L98.0845 99.6185L97.995 99.5807L97.9015 99.5547L97.5 101ZM123 113L123.817 111.742L123.757 111.703L123.692 111.669L123 113ZM143 126L143.865 124.775L143.842 124.758L143.817 124.742L143 126ZM160 138L160.916 136.812L160.891 136.793L160.865 136.775L160 138ZM184 156.5L183.084 157.688L183.112 157.709L183.14 157.729L184 156.5ZM219 181L218.14 182.229L218.2 182.271L218.263 182.306L219 181ZM307.5 203.5L307.6 204.997L307.694 204.99L307.786 204.972L307.5 203.5ZM373.5 176L374.259 177.294L374.342 177.245L374.419 177.186L373.5 176ZM409 148.5L409.919 149.686L409.941 149.669L409.962 149.651L409 148.5ZM445.5 118L444.563 116.829L444.55 116.839L444.538 116.849L445.5 118ZM480.5 90L479.699 88.7318L479.628 88.7764L479.563 88.8287L480.5 90ZM519.5 67L518.868 65.6395L518.822 65.661L518.777 65.6857L519.5 67ZM548.5 55.5L548.147 54.0422L548.085 54.0571L548.026 54.077L548.5 55.5ZM565 51.5L564.856 50.007L564.75 50.0172L564.647 50.0422L565 51.5ZM580.5 50V48.5H580.428L580.356 48.507L580.5 50ZM645 63.5L645.661 62.1533L645.581 62.1141L645.497 62.0846L645 63.5ZM671.5 76.5L672.267 75.2107L672.215 75.1799L672.161 75.1533L671.5 76.5ZM690 87.5L690.81 86.2375L690.789 86.2237L690.767 86.2107L690 87.5ZM716.5 104.5L717.324 103.247L717.317 103.242L717.31 103.237L716.5 104.5ZM735.5 117L734.676 118.253L734.715 118.279L734.756 118.302L735.5 117ZM760 131L759.256 132.302L759.312 132.335L759.371 132.362L760 131ZM773 137L772.371 138.362L772.447 138.397L772.526 138.423L773 137ZM791 143L790.526 144.423L790.623 144.455L790.724 144.474L791 143ZM865 126.5L865.692 127.831L865.749 127.801L865.803 127.767L865 126.5ZM885.5 113.5L886.303 114.767L886.311 114.762L886.319 114.756L885.5 113.5ZM909.5 98.5L908.748 97.2019L908.738 97.2077L908.728 97.2138L909.5 98.5ZM942.5 82.5L942.163 81.0384L942.093 81.0544L942.026 81.077L942.5 82.5ZM955.5 79.5L955.227 78.0251L955.195 78.031L955.163 78.0384L955.5 79.5ZM969 77L968.909 75.5027L968.817 75.5083L968.727 75.5251L969 77ZM985.5 76L985.459 74.5005L985.434 74.5012L985.409 74.5027L985.5 76ZM1004 75.5L1004.04 76.9995L1004.06 76.999L1004.07 76.9981L1004 75.5ZM1024 74.5L1024.07 75.9981L1024.12 75.9957L1024.17 75.9903L1024 74.5ZM1041.5 72.5L1041.67 73.9903L1041.75 73.9814L1041.83 73.9643L1041.5 72.5ZM1094 53L1094.66 54.3485L1094.71 54.323L1094.76 54.2936L1094 53ZM1117 39.5L1117.76 40.7936L1117.81 40.7618L1117.86 40.7255L1117 39.5ZM1134 27.5L1134.86 28.7255L1134.89 28.7113L1134.9 28.6965L1134 27.5ZM1154.5 12L1155.4 13.1965L1155.41 13.1913L1155.42 13.1861L1154.5 12ZM499.5 78L498.777 76.6857L498.737 76.7075L498.699 76.7318L499.5 78ZM533.5 60.5L533.026 59.077L532.945 59.1038L532.868 59.1395L533.5 60.5ZM897 106L896.228 104.714L896.204 104.728L896.181 104.744L897 106ZM919 93L918.329 91.6584L918.288 91.6789L918.248 91.7019L919 93ZM110.5 106.5L111.192 105.169L111.139 105.142L111.084 105.119L110.5 106.5ZM55.5 91.5L55.6982 90.0132L55.6492 90.0066L55.5998 90.0033L55.5 91.5ZM797.645 144.246L797.368 145.72L797.645 144.246ZM1043.73 72.0046L1043.4 70.5403L1043.73 72.0046ZM1050.56 70.4476L1050.2 68.991L1050.56 70.4476ZM1067.98 65.0638L1068.51 66.4686L1067.98 65.0638ZM353.657 187.632L354.415 188.926L353.657 187.632ZM263.225 200.648L262.892 202.11L263.225 200.648ZM286.114 204.112L286 205.608L286.114 204.112ZM829.285 142.651L828.862 141.212L829.285 142.651ZM831.48 142.006L831.903 143.445L831.48 142.006ZM847.879 135.403L847.187 134.072L847.879 135.403ZM626.759 57.0995L626.262 58.5149L626.759 57.0995ZM316.043 201.839L315.756 200.367L316.043 201.839ZM221.679 182.511L220.942 183.817L221.679 182.511ZM235.987 190.338L235.319 191.681L235.987 190.338ZM241.378 192.891L241.994 191.523L241.378 192.891ZM0 91.5H21V88.5H0V91.5ZM20.9616 91.4995L40.4616 91.9995L40.5384 89.0005L21.0384 88.5005L20.9616 91.4995ZM70.0985 94.9453L97.0985 102.445L97.9015 99.5547L70.9015 92.0547L70.0985 94.9453ZM122.183 114.258L142.183 127.258L143.817 124.742L123.817 111.742L122.183 114.258ZM142.135 127.225L159.135 139.225L160.865 136.775L143.865 124.775L142.135 127.225ZM159.084 139.188L183.084 157.688L184.916 155.312L160.916 136.812L159.084 139.188ZM183.14 157.729L218.14 182.229L219.86 179.771L184.86 155.271L183.14 157.729ZM218.263 182.306L220.942 183.817L222.416 181.205L219.737 179.694L218.263 182.306ZM256.136 200.455L256.647 200.583L257.374 197.672L256.864 197.545L256.136 200.455ZM292.6 205.997L307.6 204.997L307.4 202.003L292.4 203.003L292.6 205.997ZM307.786 204.972L316.329 203.311L315.756 200.367L307.214 202.028L307.786 204.972ZM354.415 188.926L374.259 177.294L372.741 174.706L352.898 186.338L354.415 188.926ZM374.419 177.186L409.919 149.686L408.081 147.314L372.581 174.814L374.419 177.186ZM409.962 149.651L446.462 119.151L444.538 116.849L408.038 147.349L409.962 149.651ZM446.437 119.171L481.437 91.1713L479.563 88.8287L444.563 116.829L446.437 119.171ZM548.853 56.9578L565.353 52.9578L564.647 50.0422L548.147 54.0422L548.853 56.9578ZM565.144 52.993L580.644 51.493L580.356 48.507L564.856 50.007L565.144 52.993ZM580.5 51.5H585.082V48.5H580.5V51.5ZM626.262 58.5149L644.503 64.9154L645.497 62.0846L627.255 55.6841L626.262 58.5149ZM644.339 64.8467L670.839 77.8467L672.161 75.1533L645.661 62.1533L644.339 64.8467ZM670.733 77.7893L689.233 88.7893L690.767 86.2107L672.267 75.2107L670.733 77.7893ZM689.19 88.7625L715.69 105.763L717.31 103.237L690.81 86.2375L689.19 88.7625ZM715.676 105.753L734.676 118.253L736.324 115.747L717.324 103.247L715.676 105.753ZM734.756 118.302L759.256 132.302L760.744 129.698L736.244 115.698L734.756 118.302ZM759.371 132.362L772.371 138.362L773.629 135.638L760.629 129.638L759.371 132.362ZM772.526 138.423L790.526 144.423L791.474 141.577L773.474 135.577L772.526 138.423ZM790.724 144.474L797.368 145.72L797.921 142.772L791.276 141.526L790.724 144.474ZM829.709 144.09L831.903 143.445L831.057 140.567L828.862 141.212L829.709 144.09ZM848.571 136.734L865.692 127.831L864.308 125.169L847.187 134.072L848.571 136.734ZM865.803 127.767L886.303 114.767L884.697 112.233L864.197 125.233L865.803 127.767ZM942.837 83.9616L955.837 80.9616L955.163 78.0384L942.163 81.0384L942.837 83.9616ZM955.773 80.9749L969.273 78.4749L968.727 75.5251L955.227 78.0251L955.773 80.9749ZM969.091 78.4973L985.591 77.4973L985.409 74.5027L968.909 75.5027L969.091 78.4973ZM985.541 77.4995L1004.04 76.9995L1003.96 74.0005L985.459 74.5005L985.541 77.4995ZM1004.07 76.9981L1024.07 75.9981L1023.93 73.0019L1003.93 74.0019L1004.07 76.9981ZM1024.17 75.9903L1041.67 73.9903L1041.33 71.0097L1023.83 73.0097L1024.17 75.9903ZM1041.83 73.9643L1044.05 73.4689L1043.4 70.5403L1041.17 71.0357L1041.83 73.9643ZM1075.16 63.8485L1094.66 54.3485L1093.34 51.6515L1073.84 61.1515L1075.16 63.8485ZM1094.76 54.2936L1117.76 40.7936L1116.24 38.2064L1093.24 51.7064L1094.76 54.2936ZM1117.86 40.7255L1134.86 28.7255L1133.14 26.2745L1116.14 38.2745L1117.86 40.7255ZM1134.9 28.6965L1155.4 13.1965L1153.6 10.8035L1133.1 26.3035L1134.9 28.6965ZM1155.42 13.1861L1170.92 1.18609L1169.08 -1.18609L1153.58 10.8139L1155.42 13.1861ZM481.301 91.2682L500.301 79.2682L498.699 76.7318L479.699 88.7318L481.301 91.2682ZM500.223 79.3143L520.223 68.3143L518.777 65.6857L498.777 76.6857L500.223 79.3143ZM520.132 68.3605L534.132 61.8605L532.868 59.1395L518.868 65.6395L520.132 68.3605ZM533.974 61.923L548.974 56.923L548.026 54.077L533.026 59.077L533.974 61.923ZM886.319 114.756L897.819 107.256L896.181 104.744L884.681 112.244L886.319 114.756ZM897.772 107.286L910.272 99.7862L908.728 97.2138L896.228 104.714L897.772 107.286ZM910.252 99.7981L919.752 94.2981L918.248 91.7019L908.748 97.2019L910.252 99.7981ZM919.671 94.3416L929.671 89.3416L928.329 86.6584L918.329 91.6584L919.671 94.3416ZM941.838 84.3017L942.974 83.923L942.026 81.077L940.89 81.4557L941.838 84.3017ZM96.9155 102.381L109.916 107.881L111.084 105.119L98.0845 99.6185L96.9155 102.381ZM109.808 107.831L122.308 114.331L123.692 111.669L111.192 105.169L109.808 107.831ZM40.4002 91.9967L55.4002 92.9967L55.5998 90.0033L40.5998 89.0033L40.4002 91.9967ZM55.3018 92.9868L70.3018 94.9868L70.6982 92.0132L55.6982 90.0132L55.3018 92.9868ZM797.368 145.72C803.712 146.91 810.191 147.207 816.617 146.605L816.337 143.618C810.189 144.194 803.99 143.91 797.921 142.772L797.368 145.72ZM929.671 89.3416C933.602 87.3759 937.668 85.6917 941.838 84.3017L940.89 81.4557C936.585 82.8905 932.388 84.6291 928.329 86.6584L929.671 89.3416ZM1044.05 73.4689C1047.47 72.7106 1049.2 72.3266 1050.91 71.9042L1050.2 68.991C1048.52 69.4035 1046.83 69.7793 1043.4 70.5403L1044.05 73.4689ZM1073.94 61.1073C1070.69 62.4103 1069.08 63.0533 1067.46 63.6589L1068.51 66.4686C1070.17 65.8486 1071.81 65.191 1075.06 63.8927L1073.94 61.1073ZM1050.91 71.9042C1056.88 70.4372 1062.76 68.6222 1068.51 66.4686L1067.46 63.6589C1061.81 65.7715 1056.05 67.5519 1050.2 68.991L1050.91 71.9042ZM335.059 198.077C341.769 195.605 348.246 192.543 354.415 188.926L352.898 186.338C346.882 189.865 340.565 192.851 334.022 195.262L335.059 198.077ZM256.647 200.583C259.746 201.358 261.316 201.75 262.892 202.11L263.559 199.185C262.021 198.834 260.485 198.45 257.374 197.672L256.647 200.583ZM292.583 203.002C289.382 202.824 287.801 202.737 286.227 202.617L286 205.608C287.611 205.731 289.227 205.82 292.417 205.998L292.583 203.002ZM262.892 202.11C270.497 203.847 278.221 205.016 286 205.608L286.227 202.617C278.597 202.036 271.02 200.889 263.559 199.185L262.892 202.11ZM816.617 146.605C821.052 146.189 825.436 145.347 829.709 144.09L828.862 141.212C824.774 142.415 820.58 143.22 816.337 143.618L816.617 146.605ZM585.082 51.5C591.933 51.5 598.772 52.066 605.53 53.1923L606.023 50.2331C599.102 49.0797 592.098 48.5 585.082 48.5V51.5ZM831.903 143.445C837.663 141.751 843.245 139.503 848.571 136.734L847.187 134.072C842.033 136.752 836.631 138.927 831.057 140.567L831.903 143.445ZM605.53 53.1923C612.581 54.3674 619.517 56.1482 626.262 58.5149L627.255 55.6841C620.348 53.2603 613.244 51.4366 606.023 50.2331L605.53 53.1923ZM316.329 203.311C322.703 202.072 328.966 200.322 335.059 198.077L334.022 195.262C328.08 197.451 321.972 199.158 315.756 200.367L316.329 203.311ZM220.942 183.817C228.035 187.819 231.627 189.845 235.319 191.681L236.654 188.995C233.048 187.202 229.534 185.22 222.416 181.205L220.942 183.817ZM257.044 197.602C249.426 194.64 245.666 193.177 241.994 191.523L240.763 194.259C244.522 195.952 248.366 197.446 255.956 200.398L257.044 197.602ZM235.319 191.681C237.117 192.575 238.932 193.434 240.763 194.259L241.994 191.523C240.198 190.715 238.418 189.872 236.654 188.995L235.319 191.681Z" fill="#431303"/>
</g>
<defs>
<clipPath id="clip0_89_9">
<rect width="1170" height="269" fill="white"/>
</clipPath>
</defs>
</svg>
