<svg width="650" height="650" viewBox="0 0 650 650" fill="none" xmlns="http://www.w3.org/2000/svg">
<g clip-path="url(#clip0_42_2)">
<path d="M120.966 158.127C132.508 161.295 144.174 164.964 155.628 165.506C166.908 166.041 176.865 163.44 186.875 161.249C196.533 159.135 204.663 155.328 213.97 152.736C224.776 149.727 239.107 150.525 246.773 144.567C254.281 138.732 256.771 129.39 255.717 120.292C254.667 111.218 244.307 102.449 240.832 93.2593C237.644 84.8287 239.457 76.6894 236.046 68.2664C232.344 59.1261 228.999 49.2543 219.892 41.5504C210.808 33.8658 197.667 29.5191 185.479 25.4911C173.963 21.685 162.127 19.9027 150.401 18.5839C139.426 17.3497 128.779 17.2748 118.348 17.9415C108.185 18.591 98.8518 20.5241 89.4164 22.4815C79.392 24.5612 67.3618 24.7349 60.4534 29.9523C53.5519 35.1645 55.3366 44.7199 51.049 51.4574C46.4526 58.6803 35.8099 63.0381 34.1196 71.3339C32.4376 79.5889 35.913 89.2015 41.5958 97.8522C47.2021 106.386 59.1343 112.475 66.4419 120.537C73.9494 128.819 75.4573 139.347 85.4611 146.244C95.3665 153.073 108.875 154.808 120.966 158.127Z" fill="#ECB491"/>
<path d="M254 83C269.536 81.532 308.624 59.7777 302 92.5C295.376 125.222 342.975 130.024 364.223 140.897M364.223 140.897L358.5 129M364.223 140.897L349.5 144.5" stroke="#ECB491" stroke-width="7" stroke-linecap="round"/>
<path fill-rule="evenodd" clip-rule="evenodd" d="M464.684 604.671C437.425 606.748 408.828 610.536 386.265 596.431C359.807 579.891 335.354 554.118 337.087 524.904C338.785 496.278 367.694 475.96 394.316 460.721C415.165 448.786 440.494 456.018 464.684 451.862C500.629 445.686 536.209 413.979 567.714 430.929C599.981 448.289 608.383 491.511 600.449 524.904C593.401 554.566 558.985 568.966 531.011 585.402C510.733 597.316 488.722 602.839 464.684 604.671Z" fill="#C19071"/>
<path d="M403.562 242.102C386.41 272.893 342.448 326.946 298.688 303.878C268.811 288.129 295.096 261.684 327.04 279.983C358.984 298.281 344.294 352.154 271.024 340.251M271.024 340.251L281.784 331.54M271.024 340.251L285.34 352.566" stroke="#DCA989" stroke-width="7" stroke-linecap="round"/>
<path d="M119.5 412C95.5 448.5 143.998 515.733 190.991 467.363C237.984 418.993 304.433 452.829 331.787 475.791M331.787 475.791L306.75 476.118M331.787 475.791L323.791 448.25" stroke="#D19D7D" stroke-width="7" stroke-linecap="round"/>
<path fill-rule="evenodd" clip-rule="evenodd" d="M476.034 270.636C453.574 265.055 447.925 244.871 429.182 234.25C406.25 221.255 366.243 220.633 355.708 202.451C345.519 184.864 371.04 170.723 383.978 156.228C395.886 142.887 405.345 127.042 427.73 121.76C449.723 116.571 475.28 125.682 499.915 128.873C526.609 132.332 556.305 128.691 577.793 141.203C599.696 153.956 606.647 174.336 608.957 192.365C611.082 208.951 602.792 224.089 590.071 237.016C578.426 248.849 560.209 256.109 540.516 261.914C520.45 267.83 498.811 276.295 476.034 270.636Z" fill="#DCA989"/>
<path d="M72.2476 93.9925L71.888 93.9756C71.4351 93.9543 70.986 93.8532 70.5407 93.6721C69.4965 93.1692 68.759 92.3871 68.3283 91.3258C67.6345 89.6114 67.3721 86.9562 67.5408 83.3601C67.5946 82.2147 67.7016 81.0718 67.8619 79.9314L68.0262 78.1371C68.1062 76.4323 68.5414 74.8377 69.3319 73.3531C70.4266 71.6425 71.9783 70.4339 73.987 69.7273C75.1258 69.3536 76.2812 69.1943 77.4532 69.2493C78.3323 69.2905 79.2057 69.4517 80.0734 69.7327C82.2797 70.5036 83.87 71.8863 84.8442 73.8809C85.2013 74.8053 85.3592 75.707 85.3179 76.586C85.2654 77.7048 84.8806 78.7946 84.1634 79.8555C83.0329 81.1907 81.5888 82.0973 79.8311 82.5754L79.5477 82.6422C76.8098 83.5282 75.3644 85.3157 75.2115 88.0048L75.1796 88.6841C75.1484 89.35 75.0899 90.028 75.0041 90.7181C74.9274 91.7823 74.5253 92.6711 73.7978 93.3845C73.3541 93.7374 72.8373 93.94 72.2476 93.9925ZM75.7402 79.3C75.9266 79.3088 76.1143 79.2909 76.3033 79.2464C76.9006 79.0341 77.3722 78.6558 77.7181 78.1114C78.064 77.5671 78.2513 76.9885 78.28 76.3759C78.3038 75.8698 78.1513 75.4221 77.8225 75.033C77.5699 74.7274 77.245 74.5387 76.848 74.4667C76.3685 74.4442 75.9367 74.544 75.5525 74.7663C74.9173 75.217 74.576 75.9484 74.5285 76.9607C74.491 77.7598 74.6088 78.3793 74.8818 78.8193C75.0545 79.121 75.3406 79.2813 75.7402 79.3Z" fill="#FFF7E3"/>
<path d="M95.4823 77.4695L95.2424 77.4622C94.2029 77.4307 93.5123 76.8895 93.1707 75.8386C92.8566 74.7619 92.6943 73.5164 92.6839 72.1021L92.5074 63.4128C92.4485 62.7173 92.4296 62.0231 92.4506 61.3301C92.4975 59.7841 92.7298 58.2838 93.1475 56.8292C94.0167 54.5612 95.5017 53.0989 97.6026 52.4423C98.7342 52.0765 99.8731 51.911 101.019 51.9458C102.032 51.9765 103.067 52.168 104.123 52.5202C106.316 53.2271 107.888 54.6087 108.84 56.6652C109.163 57.4487 109.312 58.2403 109.288 59.0399C109.28 59.3064 109.211 59.7979 109.083 60.5144C108.955 61.2041 108.493 61.9238 107.697 62.6733L106.098 63.9454C105.55 64.409 105.226 64.986 105.125 65.6766C105.14 66.0506 105.249 66.4008 105.453 66.7271C105.781 67.3506 106.544 68.1208 107.744 69.0377C108.083 69.2881 108.421 69.5651 108.759 69.8688C109.698 70.591 110.364 71.4916 110.758 72.5707C110.882 72.868 110.937 73.2565 110.923 73.7363C110.9 74.4826 110.627 75.1413 110.102 75.7123C109.528 76.1751 108.814 76.3935 107.961 76.3676C107.428 76.3514 106.911 76.2557 106.409 76.0804C104.298 75.3227 102.713 73.9406 101.653 71.9342C101.457 71.368 101.192 70.8797 100.857 70.4694C100.5 69.925 100.082 69.6455 99.602 69.6309C98.6158 69.601 98.1037 70.2124 98.0657 71.4651C98.056 71.785 98.0713 72.159 98.1117 72.587C98.2005 73.1767 98.2376 73.7114 98.223 74.1912C98.2012 74.9108 98.0332 75.6127 97.7189 76.2968C97.4322 76.9551 96.6866 77.346 95.4823 77.4695ZM100.951 60.7878C101.351 60.7999 101.726 60.7446 102.077 60.6218C102.454 60.4999 102.766 60.3359 103.012 60.13C103.258 59.924 103.414 59.6353 103.478 59.2637C103.497 58.6507 103.245 58.1761 102.721 57.8401C102.355 57.5889 101.959 57.4568 101.533 57.4439C100.68 57.418 100.062 57.546 99.6802 57.8278C99.4597 58.0613 99.3393 58.5111 99.3191 59.1775C99.3304 59.6847 99.5044 60.1036 99.8412 60.4339C100.128 60.6561 100.458 60.7728 100.831 60.7841L100.951 60.7878Z" fill="#FFF7E3"/>
<path d="M123.006 88.2794C121.94 88.211 120.959 87.8638 120.061 87.2377C118.584 86.07 117.758 84.1248 117.583 81.4021C117.563 80.9218 117.557 80.4283 117.564 79.9217C117.58 78.8018 117.662 77.6695 117.812 76.5248L117.814 76.4048C117.919 74.6195 118.21 72.8634 118.688 71.1367C119.138 69.5162 119.931 68.1006 121.068 66.8899C122.394 65.5752 123.978 64.8108 125.821 64.5969L126.542 64.5671C127.368 64.5787 128.166 64.7634 128.934 65.1209C129.94 65.6419 130.556 66.4507 130.78 67.5473L130.813 68.0278C130.806 68.5611 130.638 69.1054 130.31 69.6608C130.009 70.2166 129.562 70.6904 128.97 71.082C127.733 71.7846 126.395 72.1524 124.954 72.1854L124.793 72.2231C123.434 72.2039 122.614 72.619 122.336 73.4685L122.292 73.7079C122.287 74.0545 122.416 74.3497 122.68 74.5935C122.943 74.8105 123.208 74.921 123.475 74.9247C123.848 74.93 124.196 74.8816 124.517 74.7795C124.865 74.6777 125.199 74.6291 125.519 74.6336C125.812 74.6644 126.091 74.7484 126.356 74.8855C126.805 75.1585 127.027 75.5217 127.021 75.975C127.014 76.4549 126.794 76.8919 126.362 77.2858C125.957 77.6534 125.446 77.9262 124.83 78.1042C123.383 78.6171 122.653 79.3402 122.639 80.2735C122.638 80.4068 122.662 80.5538 122.713 80.7145C122.999 81.252 123.448 81.525 124.062 81.5337C124.275 81.5367 124.489 81.4997 124.703 81.4228C125.427 81.1396 126.008 80.6544 126.444 79.9672L126.689 79.6506C127.043 79.0956 127.463 78.6082 127.949 78.1883C128.515 77.7963 129.131 77.605 129.798 77.6144C130.518 77.6246 131.142 77.8201 131.67 78.2009C132.54 78.8533 132.968 79.7128 132.953 80.7793C132.949 81.0993 132.891 81.4185 132.78 81.737C132.448 82.5324 131.958 83.2322 131.31 83.8364C130.199 85.0475 128.944 86.0965 127.545 86.9835C126.172 87.8708 124.659 88.3028 123.006 88.2794Z" fill="#FFF7E3"/>
<path d="M140.162 108.736C139.549 108.737 138.829 108.672 138.002 108.539C137.202 108.38 136.428 107.982 135.68 107.343C134.586 106.384 134.037 105.158 134.035 103.665C134.034 102.918 134.207 102.198 134.552 101.504C135.084 100.517 135.75 100.022 136.55 100.021C136.977 100.047 137.364 100.194 137.711 100.46C138.058 100.726 138.392 101.019 138.712 101.338L138.752 101.378C139.527 102.231 140.448 102.856 141.515 103.254C141.808 103.334 142.115 103.374 142.435 103.373C142.675 103.373 142.995 103.332 143.395 103.252C143.821 103.145 144.194 102.877 144.514 102.45C144.86 101.997 145.032 101.53 145.032 101.05C145.032 100.943 145.005 100.703 144.951 100.33C144.924 99.9564 144.723 99.5167 144.349 99.0106C143.441 97.9985 142.28 97.2534 140.866 96.7754C139.852 96.3768 138.931 95.8714 138.104 95.2592C137.223 94.4871 136.621 93.5412 136.3 92.4217C136.139 91.8352 136.058 91.262 136.057 90.702C136.057 90.142 136.136 89.5819 136.295 89.0217C137.092 86.7006 138.663 85.1251 141.009 84.2952C141.915 84.0272 142.808 83.8927 143.688 83.8915C145.048 83.8896 146.382 84.1944 147.689 84.8059C148.597 85.2047 149.357 85.777 149.972 86.5228C150.506 87.1887 150.774 87.9217 150.775 88.7217C150.776 89.4417 150.563 90.042 150.137 90.5226C149.711 90.9765 149.205 91.2039 148.618 91.2047C147.952 91.2056 147.285 91.0465 146.618 90.7274L146.057 90.4882C145.657 90.3288 145.15 90.2495 144.537 90.2503C144.057 90.251 143.644 90.3982 143.297 90.692C143.138 90.9056 143.058 91.1457 143.058 91.4123C143.059 91.599 143.126 91.8789 143.26 92.2521C143.42 92.5985 143.634 92.9182 143.901 93.2112C144.569 93.8769 145.343 94.4092 146.223 94.808L146.503 94.9676C147.277 95.2865 147.998 95.6989 148.665 96.2046C149.973 97.4295 150.629 98.8952 150.631 100.602C150.632 100.975 150.592 101.375 150.513 101.802C150.036 103.909 148.891 105.578 147.08 106.807C145.055 108.09 142.749 108.733 140.162 108.736Z" fill="#FFF7E3"/>
<path d="M165.622 100.594C165.249 100.601 164.861 100.541 164.459 100.415C163.706 100.081 163.204 99.5702 162.952 98.8812C162.755 98.3245 162.65 97.6596 162.637 96.8864C162.581 93.7136 163.098 90.5306 164.189 87.3376C165.075 84.655 166.405 82.1779 168.179 79.9063C169.301 78.473 170.541 77.7178 171.9 77.6405C173.394 77.6676 174.728 78.4709 175.903 80.0505C177.759 82.4716 179.019 85.1032 179.682 87.9453C180.288 90.5484 180.618 93.3963 180.672 96.4892C180.685 97.1824 180.629 97.8102 180.506 98.3724C180.382 98.9347 180.044 99.4207 179.491 99.8305C179.043 100.132 178.459 100.289 177.739 100.301C177.206 100.311 176.711 100.213 176.254 100.007C175.284 99.4377 174.616 98.6627 174.252 97.6823C173.888 96.6752 173.696 95.6251 173.677 94.5319L173.595 92.133C173.143 92.2209 172.677 92.2691 172.197 92.2776C171.824 92.2841 171.45 92.264 171.076 92.2173C171.006 94.2988 170.387 96.27 169.22 98.1308C168.78 98.912 168.151 99.5632 167.334 100.084C166.779 100.414 166.209 100.584 165.622 100.594ZM172.362 87.994C172.548 87.9907 172.76 87.8937 172.997 87.7028C173.233 87.4853 173.374 87.1894 173.421 86.8152L173.452 86.2946C173.439 85.548 173.294 84.9105 173.018 84.3819C172.852 84.0114 172.567 83.7631 172.165 83.6368L172.004 83.5996C171.845 83.6024 171.675 83.8188 171.496 84.2487L171.458 84.3694C171.28 84.8792 171.196 85.4008 171.205 85.934C171.217 86.5739 171.346 87.1051 171.593 87.5275C171.759 87.8446 172.015 88.0001 172.362 87.994Z" fill="#FFF7E3"/>
<path d="M195.055 115.123L194.294 115.108C192.474 114.928 191.047 114.121 190.012 112.687C189.561 111.955 189.256 111.178 189.096 110.356C188.934 109.507 188.826 108.657 188.772 107.805L187.965 97.8263L187.887 96.6682C187.873 96.2685 187.871 95.7883 187.879 95.2277C187.913 94.6396 188.106 94.0063 188.457 93.3278C189.238 91.9148 190.508 91.1794 192.267 91.1218C192.96 91.0991 193.671 91.2225 194.401 91.4921C195.156 91.7342 195.734 92.3022 196.137 93.1961C196.52 94.3042 196.731 95.4312 196.768 96.5773C196.782 97.0037 196.769 97.4177 196.729 97.8192C196.808 100.245 196.767 103.061 196.606 106.268L197.275 105.926C197.904 105.585 198.445 105.407 198.898 105.392C199.191 105.383 199.473 105.413 199.742 105.485C200.929 105.899 201.703 106.714 202.063 107.93C202.127 108.248 202.164 108.567 202.174 108.887C202.202 109.74 202.002 110.56 201.575 111.348C200.968 112.382 200.155 113.209 199.135 113.829C197.881 114.644 196.521 115.075 195.055 115.123Z" fill="#FFF7E3"/>
<path d="M218.307 128.692C217.239 128.689 216.238 128.403 215.303 127.833C213.757 126.758 212.813 124.867 212.472 122.16C212.423 121.682 212.386 121.19 212.362 120.684C212.309 119.565 212.322 118.43 212.401 117.278L212.396 117.158C212.391 115.37 212.574 113.599 212.945 111.847C213.295 110.202 214 108.74 215.061 107.462C216.303 106.068 217.837 105.208 219.664 104.882L220.381 104.808C221.207 104.769 222.014 104.904 222.803 105.214C223.839 105.672 224.503 106.441 224.794 107.522L224.857 108C224.882 108.533 224.748 109.086 224.455 109.661C224.188 110.234 223.772 110.734 223.204 111.161C222.013 111.938 220.7 112.388 219.264 112.509L219.106 112.556C217.747 112.621 216.955 113.085 216.729 113.95L216.7 114.192C216.717 114.538 216.864 114.825 217.141 115.052C217.418 115.253 217.689 115.346 217.956 115.334C218.329 115.316 218.672 115.247 218.987 115.125C219.328 115.002 219.659 114.933 219.978 114.918C220.273 114.931 220.556 114.997 220.829 115.118C221.294 115.363 221.537 115.712 221.559 116.165C221.582 116.644 221.389 117.094 220.982 117.513C220.6 117.905 220.107 118.209 219.503 118.424C218.09 119.025 217.406 119.792 217.45 120.724C217.456 120.857 217.489 121.002 217.55 121.16C217.868 121.678 218.334 121.923 218.947 121.894C219.16 121.884 219.371 121.834 219.58 121.744C220.286 121.417 220.835 120.897 221.228 120.185L221.453 119.854C221.773 119.278 222.162 118.766 222.622 118.317C223.162 117.891 223.765 117.662 224.431 117.631C225.151 117.597 225.785 117.754 226.336 118.101C227.245 118.699 227.725 119.531 227.775 120.596C227.79 120.916 227.752 121.238 227.661 121.563C227.379 122.377 226.933 123.105 226.322 123.748C225.288 125.025 224.1 126.149 222.758 127.12C221.442 128.09 219.958 128.614 218.307 128.692Z" fill="#FFF7E3"/>
<path d="M421.041 165.279C419.371 164.422 418.412 163.067 418.164 161.213C418.124 160.497 418.218 159.778 418.445 159.055C418.691 158.342 418.975 157.649 419.297 156.975L422.93 148.984L423.369 148.058C423.525 147.755 423.734 147.394 423.996 146.977C424.267 146.541 424.672 146.126 425.211 145.731C426.43 144.99 427.714 144.965 429.061 145.656C429.631 145.949 430.132 146.35 430.566 146.86C431.028 147.361 431.226 148.05 431.16 148.927C430.987 149.918 430.672 150.859 430.214 151.751C430.048 152.074 429.859 152.396 429.646 152.718C428.672 154.616 427.452 156.76 425.986 159.149L427.102 159.146C427.464 159.188 427.797 159.287 428.101 159.443C428.31 159.55 428.513 159.69 428.712 159.864C429.438 160.692 429.676 161.654 429.426 162.748C429.347 163.043 429.244 163.314 429.117 163.561C428.786 164.206 428.284 164.74 427.612 165.162C426.7 165.677 425.714 165.963 424.654 166.019C423.366 166.1 422.161 165.854 421.041 165.279Z" fill="#FFF7E3"/>
<path d="M437.553 162.441L437.407 162.376C436.745 161.87 436.429 161.191 436.46 160.34C436.531 159.554 436.771 158.703 437.181 157.788C437.697 156.476 438.239 155.188 438.805 153.922C440.269 150.651 441.62 148.1 442.859 146.271C443.6 145.293 444.542 144.756 445.684 144.659C446.093 144.632 446.444 144.684 446.736 144.815C447.301 145.067 447.691 145.605 447.908 146.426C447.991 147.234 447.877 148.036 447.568 148.833C447.116 150.313 446.58 151.745 445.962 153.127C444.742 155.854 443.204 158.403 441.349 160.774C440.87 161.425 440.296 161.951 439.626 162.352C438.925 162.717 438.234 162.746 437.553 162.441Z" fill="#FFF7E3"/>
<path d="M456.87 160.889C456.411 160.714 455.892 160.458 455.313 160.122C454.761 159.774 454.297 159.254 453.923 158.562C453.38 157.532 453.323 156.459 453.75 155.344C453.963 154.786 454.298 154.297 454.756 153.879C455.436 153.294 456.076 153.116 456.673 153.345C456.984 153.487 457.231 153.707 457.414 154.005C457.597 154.304 457.762 154.618 457.91 154.949L457.928 154.99C458.262 155.849 458.77 156.58 459.453 157.184C459.649 157.327 459.867 157.445 460.106 157.536C460.285 157.605 460.536 157.667 460.857 157.721C461.207 157.764 461.562 157.671 461.923 157.444C462.311 157.204 462.574 156.905 462.712 156.547C462.742 156.467 462.791 156.28 462.858 155.986C462.945 155.699 462.921 155.313 462.787 154.828C462.399 153.812 461.746 152.922 460.827 152.159C460.185 151.571 459.642 150.929 459.2 150.234C458.764 149.405 458.586 148.526 458.667 147.598C458.715 147.114 458.819 146.662 458.98 146.244C459.14 145.826 459.36 145.43 459.639 145.057C460.9 143.553 462.526 142.827 464.516 142.881C465.269 142.941 465.975 143.096 466.632 143.348C467.648 143.737 468.557 144.347 469.358 145.179C469.921 145.737 470.325 146.383 470.569 147.116C470.777 147.767 470.767 148.391 470.538 148.989C470.332 149.527 470.001 149.914 469.545 150.151C469.097 150.367 468.653 150.392 468.215 150.224C467.717 150.033 467.265 149.723 466.858 149.293L466.508 148.954C466.255 148.72 465.9 148.515 465.441 148.34C465.083 148.203 464.732 148.194 464.389 148.314C464.208 148.428 464.08 148.584 464.004 148.784C463.95 148.923 463.92 149.151 463.913 149.468C463.933 149.773 464.001 150.073 464.117 150.369C464.424 151.057 464.849 151.677 465.393 152.227L465.556 152.427C466.042 152.887 466.462 153.402 466.815 153.971C467.441 155.261 467.51 156.544 467.022 157.819C466.915 158.098 466.771 158.385 466.589 158.681C465.628 160.118 464.294 161.035 462.589 161.433C460.709 161.81 458.802 161.629 456.87 160.889Z" fill="#FFF7E3"/>
<path d="M475.421 174.237L475.326 174.22C474.738 174.117 474.221 173.852 473.776 173.427C473.335 172.981 473.018 172.448 472.824 171.829C472.541 170.609 472.51 169.369 472.733 168.109L472.979 166.527C473.261 164.931 473.622 163.316 474.062 161.682L474.522 159.813C474.283 159.815 474.027 159.791 473.754 159.743C473.019 159.613 472.413 159.365 471.936 159C471.32 158.436 470.995 157.761 470.961 156.975L471.001 156.56C471.072 156.161 471.249 155.77 471.533 155.387C471.839 155.007 472.25 154.701 472.768 154.467C473.772 154.059 474.829 153.899 475.94 153.987C476.995 154.022 478.048 154.132 479.098 154.317L480.322 154.566C481.393 154.755 482.312 155.198 483.077 155.897C483.823 156.7 484.102 157.637 483.913 158.709C483.798 159.36 483.461 159.853 482.904 160.188C482.598 160.329 482.05 160.427 481.26 160.483C480.474 160.517 479.713 160.47 478.978 160.34L478.726 160.295C479.441 163.238 479.641 166.219 479.325 169.239C479.307 169.583 479.269 169.923 479.21 170.259C478.902 172.003 478.203 173.201 477.113 173.853C476.58 174.171 476.016 174.299 475.421 174.237Z" fill="#FFF7E3"/>
<path d="M492.996 166.665L492.837 166.646C492.055 166.357 491.554 165.802 491.331 164.979C491.168 164.207 491.146 163.323 491.267 162.328C491.374 160.923 491.511 159.532 491.679 158.155C492.112 154.598 492.651 151.762 493.295 149.648C493.715 148.496 494.456 147.705 495.519 147.276C495.902 147.129 496.252 147.075 496.57 147.114C497.184 147.188 497.716 147.586 498.165 148.307C498.483 149.055 498.611 149.855 498.55 150.707C498.555 152.255 498.466 153.781 498.283 155.285C497.921 158.249 497.204 161.139 496.131 163.952C495.866 164.715 495.472 165.387 494.95 165.968C494.388 166.523 493.737 166.755 492.996 166.665Z" fill="#FFF7E3"/>
<path d="M503.985 176.808C502.456 176.64 501.601 175.461 501.421 173.272C501.303 171.898 501.295 170.263 501.398 168.368C501.459 167.239 501.558 166.005 501.695 164.666C501.763 163.794 501.958 162.768 502.278 161.589C502.6 160.389 503.104 159.369 503.79 158.531C504.499 157.672 505.428 157.273 506.579 157.336L506.738 157.344C507.669 157.523 508.529 158.2 509.32 159.375C510.111 160.55 510.797 161.891 511.378 163.396C511.981 164.882 512.455 166.189 512.799 167.319L513.283 169.044L513.226 167.727C513.166 166.869 513.137 165.821 513.14 164.582C513.132 163.94 513.145 163.311 513.178 162.693C513.212 162.075 513.286 161.299 513.401 160.365C513.515 159.432 513.765 158.569 514.15 157.778C514.536 156.966 515.091 156.579 515.815 156.619C517.063 156.857 517.918 158.025 518.381 160.123C518.809 162.09 518.956 164.299 518.823 166.748C518.814 166.919 518.749 167.727 518.628 169.173C518.529 170.599 518.116 172.297 517.39 174.266C516.664 176.235 515.735 177.21 514.604 177.191C513.715 177.036 512.835 176.326 511.963 175.061C511.093 173.775 510.306 172.322 509.604 170.703C508.901 169.084 508.338 167.643 507.915 166.381L507.279 164.52C507.44 166.281 507.473 168.035 507.378 169.781C507.37 169.93 507.328 170.516 507.251 171.537C507.174 172.558 506.866 173.706 506.327 174.98C505.789 176.233 505.009 176.842 503.985 176.808Z" fill="#FFF7E3"/>
<path d="M533.72 173.648C532.168 173.776 530.654 173.462 529.179 172.706C526.594 171.206 525.012 168.886 524.432 165.744L524.334 164.95C524.289 164.397 524.286 163.851 524.328 163.313C524.62 160.099 525.903 157.489 528.178 155.482C529.582 154.339 531.113 153.699 532.772 153.562C533.282 153.52 533.796 153.521 534.313 153.564C535.803 153.719 536.917 154.248 537.655 155.151C538.014 155.614 538.218 156.143 538.267 156.738C538.274 156.823 538.283 157.058 538.293 157.442C538.303 157.827 538.061 158.264 537.566 158.754C537.126 159.133 536.556 159.351 535.854 159.409C535.45 159.442 534.924 159.421 534.276 159.346C533.627 159.271 533.133 159.248 532.793 159.276C531.283 159.4 530.084 160.173 529.195 161.595C528.634 162.583 528.396 163.587 528.48 164.608C528.527 165.182 528.671 165.759 528.912 166.338C529.713 168.006 530.904 168.957 532.486 169.191C532.745 169.212 532.991 169.213 533.225 169.194C533.501 169.171 533.743 169.119 533.95 169.038C534.445 168.804 534.748 168.458 534.86 168C534.874 167.913 534.877 167.816 534.868 167.71C534.816 167.072 534.375 166.787 533.546 166.856C533.035 166.898 532.668 166.853 532.443 166.722C532.128 166.534 531.953 166.227 531.918 165.802C531.855 165.036 532.248 164.48 533.097 164.131C533.531 163.946 534.099 163.824 534.8 163.766C535.927 163.673 536.914 163.828 537.76 164.229L537.792 164.226C538.106 164.393 538.4 164.593 538.677 164.828C539.445 165.578 539.871 166.463 539.955 167.484C539.988 167.888 539.96 168.329 539.871 168.807C539.556 170.181 538.763 171.338 537.492 172.278C536.381 173.076 535.123 173.533 533.72 173.648Z" fill="#FFF7E3"/>
<path d="M447.347 199.462C444.681 199.523 442.416 198.751 440.552 197.144C438.687 195.516 437.68 193.348 437.532 190.642C437.563 187.504 438.668 184.94 440.847 182.952C442.654 181.338 444.677 180.496 446.916 180.426C447.406 180.411 447.898 180.428 448.39 180.477C450.428 180.819 452.185 181.703 453.659 183.13C455.154 184.535 456.043 186.354 456.326 188.586L456.343 189.162C456.423 191.721 455.641 194.029 453.997 196.086C452.353 198.122 450.136 199.247 447.347 199.462ZM447.014 193.902C448.4 193.859 449.493 193.302 450.292 192.231C450.927 191.379 451.227 190.399 451.193 189.29L451.184 189.002C451.022 187.918 450.57 187.089 449.826 186.515C449.083 185.94 448.197 185.616 447.171 185.541L447.011 185.546C445.859 185.582 444.87 186.039 444.044 186.918C443.238 187.776 442.824 188.877 442.802 190.223C442.886 191.543 443.385 192.52 444.301 193.154C445.086 193.684 445.991 193.933 447.014 193.902Z" fill="#FFF7E3"/>
<path d="M467.921 205.644C466.388 205.775 465.321 204.784 464.72 202.672C464.338 201.347 464.014 199.744 463.748 197.864C463.589 196.745 463.447 195.515 463.322 194.176C463.221 193.307 463.213 192.263 463.299 191.044C463.381 189.804 463.678 188.706 464.189 187.75C464.718 186.771 465.553 186.2 466.694 186.038L466.852 186.016C467.8 186.011 468.775 186.508 469.779 187.508C470.782 188.508 471.714 189.69 472.576 191.055C473.455 192.395 474.173 193.586 474.73 194.628L475.539 196.226L475.228 194.945C475.003 194.115 474.771 193.092 474.534 191.876C474.402 191.248 474.293 190.628 474.206 190.015C474.119 189.403 474.042 188.627 473.973 187.689C473.905 186.751 473.983 185.856 474.207 185.006C474.428 184.134 474.898 183.647 475.616 183.546C476.886 183.538 477.952 184.518 478.813 186.486C479.613 188.334 480.185 190.472 480.529 192.901C480.553 193.07 480.646 193.875 480.807 195.318C480.987 196.736 480.911 198.481 480.58 200.553C480.249 202.626 479.526 203.762 478.413 203.963C477.511 203.983 476.51 203.457 475.41 202.385C474.307 201.292 473.254 200.019 472.251 198.566C471.247 197.114 470.416 195.81 469.757 194.654L468.772 192.951C469.271 194.647 469.643 196.361 469.889 198.093C469.91 198.241 469.981 198.823 470.104 199.84C470.227 200.857 470.147 202.043 469.865 203.397C469.58 204.73 468.932 205.479 467.921 205.644Z" fill="#FFF7E3"/>
<path d="M496.41 237.745L495.903 237.678C494.887 237.544 493.897 237.306 492.931 236.963C490.94 236.227 489.615 235.181 488.955 233.825C488.51 232.626 488.377 231.349 488.556 229.996L488.572 229.869C488.637 228.887 488.732 227.921 488.858 226.969L489.08 225.288C489.275 223.807 489.584 222.277 490.008 220.698C490.452 219.121 491.271 217.809 492.463 216.761C493.849 215.717 495.335 215.3 496.921 215.509C497.196 215.545 497.479 215.604 497.769 215.685C499.538 216.306 501.004 217.424 502.168 219.041C503.622 220.911 504.625 223.012 505.178 225.344C505.505 226.786 505.576 228.205 505.392 229.601C505.266 230.553 505.024 231.489 504.666 232.41C503.669 234.753 502.077 236.383 499.89 237.3C498.76 237.71 497.6 237.859 496.41 237.745ZM496.039 232.725C496.568 232.795 497.091 232.745 497.608 232.577C499.007 231.922 499.837 230.601 500.1 228.613C500.225 227.661 500.167 226.717 499.924 225.781C499.597 224.512 499.116 223.34 498.483 222.267C497.833 220.998 497.074 220.306 496.207 220.192L495.699 220.125C495.165 220.097 494.772 221.035 494.521 222.939C494.452 223.468 494.411 223.86 494.398 224.117C494.206 225.899 494.078 227.69 494.013 229.489C493.907 230.615 494.064 231.464 494.484 232.036C494.844 232.406 495.362 232.636 496.039 232.725Z" fill="#FFF7E3"/>
<path d="M520.052 233.588C519.055 233.819 518.05 233.735 517.037 233.335C515.403 232.62 514.214 231.035 513.468 228.58L513.053 226.935C512.831 225.979 512.651 225.014 512.512 224.038C512.528 224.013 512.531 223.979 512.521 223.938C512.197 222.261 512.057 220.574 512.101 218.877C512.174 217.305 512.587 215.83 513.339 214.45C514.26 212.944 515.548 211.889 517.203 211.286C517.443 211.186 517.688 211.107 517.937 211.05C518.664 210.881 519.399 210.885 520.141 211.063C521.187 211.324 521.94 211.926 522.401 212.871L522.526 213.269C522.642 213.767 522.617 214.321 522.452 214.928C522.302 215.511 521.988 216.044 521.509 216.527C520.562 217.448 519.421 218.097 518.085 218.473C517.607 218.584 517.148 218.778 516.709 219.055C516.29 219.328 516.051 219.712 515.991 220.208L516.018 220.464C516.095 220.797 516.295 221.046 516.618 221.212C516.865 221.33 517.113 221.36 517.362 221.302C517.611 221.244 517.903 221.132 518.237 220.967C518.566 220.781 518.876 220.654 519.167 220.587C519.458 220.519 519.743 220.519 520.021 220.585C520.494 220.738 520.78 221.022 520.876 221.438C520.973 221.854 520.867 222.294 520.559 222.76C520.267 223.2 519.862 223.579 519.345 223.896C518.827 224.214 518.404 224.608 518.075 225.078C517.794 225.472 517.705 225.887 517.806 226.323C517.84 226.469 517.905 226.607 518.001 226.738C518.345 227.184 518.829 227.334 519.453 227.189C519.64 227.146 519.809 227.074 519.961 226.973C520.616 226.492 521.088 225.791 521.378 224.869C521.594 224.293 521.877 223.768 522.227 223.292C522.675 222.772 523.232 222.435 523.897 222.28C524.479 222.145 525.06 222.196 525.641 222.433C526.222 222.671 526.686 223.067 527.034 223.621C527.205 223.888 527.327 224.177 527.4 224.489C527.467 224.78 527.485 225.093 527.454 225.429C527.332 226.224 527.035 226.972 526.563 227.673C525.826 229.027 524.92 230.266 523.846 231.392C522.792 232.513 521.528 233.245 520.052 233.588Z" fill="#FFF7E3"/>
<path d="M550.583 228.535C550.222 228.57 549.841 228.51 549.441 228.356C548.612 227.986 547.864 227.458 547.198 226.772C546.161 225.801 545.152 224.784 544.171 223.721C543.128 225.129 541.992 226.461 540.763 227.715C540.567 227.906 540.39 228.073 540.233 228.217C540.094 228.337 539.912 228.451 539.687 228.559C539.483 228.664 539.275 228.727 539.062 228.748C538.829 228.77 538.59 228.74 538.346 228.656C537.609 228.342 537.185 227.622 537.077 226.496L536.99 225.604C537.006 224.21 537.219 222.871 537.631 221.588C538.062 220.282 538.582 219.01 539.191 217.772C539.018 217.532 538.835 217.303 538.643 217.086C537.856 216.262 537.012 215.175 536.11 213.827C535.368 212.805 534.887 211.705 534.666 210.526L534.644 210.303C534.529 209.114 534.94 208.153 535.876 207.419C536.304 207.185 536.741 207.046 537.187 207.003C537.887 206.936 538.59 207.114 539.296 207.539C540.323 208.19 541.218 209.025 541.981 210.044L542.777 210.964C543.693 209.568 544.774 208.339 546.022 207.275C546.592 206.748 547.196 206.454 547.833 206.393C548.619 206.317 549.162 206.5 549.462 206.943C549.783 207.383 549.951 207.678 549.965 207.826L550.058 208.46C550.091 208.8 550.079 209.23 550.022 209.75C549.618 212.446 548.862 215.049 547.754 217.556C549.244 219.663 550.549 221.862 551.671 224.154C552.065 224.909 552.295 225.626 552.361 226.306C552.423 226.943 552.251 227.495 551.846 227.963C551.471 228.299 551.05 228.49 550.583 228.535Z" fill="#FFF7E3"/>
<path d="M566.634 221.205C566.197 221.428 565.66 221.643 565.022 221.849C564.394 222.026 563.698 222.023 562.933 221.839C561.804 221.553 560.968 220.878 560.425 219.814C560.153 219.282 560.014 218.706 560.009 218.086C560.03 217.189 560.325 216.595 560.895 216.304C561.209 216.167 561.537 216.131 561.881 216.195C562.225 216.259 562.57 216.346 562.914 216.458L562.957 216.472C563.819 216.798 564.702 216.909 565.608 216.806C565.846 216.756 566.079 216.673 566.307 216.557C566.478 216.469 566.691 216.324 566.947 216.122C567.212 215.89 567.381 215.565 567.454 215.144C567.536 214.695 567.489 214.299 567.314 213.957C567.276 213.881 567.169 213.72 566.995 213.474C566.84 213.217 566.538 212.977 566.087 212.752C565.073 212.36 563.974 212.25 562.793 212.423C561.925 212.507 561.086 212.481 560.273 212.345C559.365 212.114 558.593 211.658 557.957 210.977C557.63 210.617 557.364 210.238 557.16 209.839C556.956 209.44 556.809 209.012 556.72 208.555C556.445 206.611 556.993 204.917 558.364 203.474C558.913 202.954 559.5 202.534 560.127 202.214C561.096 201.719 562.158 201.452 563.312 201.413C564.103 201.368 564.853 201.5 565.562 201.808C566.185 202.089 566.642 202.514 566.933 203.084C567.195 203.597 567.261 204.102 567.132 204.599C566.993 205.078 566.715 205.424 566.297 205.637C565.822 205.88 565.289 206.009 564.697 206.023L564.211 206.056C563.868 206.088 563.478 206.215 563.041 206.439C562.699 206.613 562.458 206.868 562.318 207.203C562.281 207.414 562.312 207.614 562.409 207.804C562.477 207.937 562.626 208.112 562.857 208.329C563.097 208.518 563.366 208.668 563.663 208.78C564.38 209.012 565.125 209.111 565.898 209.075L566.155 209.087C566.823 209.034 567.486 209.066 568.146 209.185C569.523 209.583 570.522 210.39 571.144 211.605C571.279 211.871 571.397 212.171 571.495 212.504C571.92 214.179 571.71 215.784 570.864 217.318C569.887 218.968 568.476 220.263 566.634 221.205Z" fill="#FFF7E3"/>
<path fill-rule="evenodd" clip-rule="evenodd" d="M245.953 354.801C246.661 379.495 230.46 404.776 205.395 415.608C182.563 425.474 157.289 408.254 131.82 404.123C109.455 400.496 85.7693 405.174 67.36 393.218C43.514 377.732 19.4405 356.735 19.4721 331.161C19.5051 304.509 41.5925 281.334 67.5152 267.871C90.7271 255.816 119.667 259.179 146.312 265.287C168.829 270.449 185.7 284.027 202.042 298.709C220.857 315.612 245.286 331.572 245.953 354.801Z" fill="#D19D7D"/>
<path d="M63.4275 316.255C62.2868 315.736 61.1947 315.077 60.1513 314.28C58.349 312.961 57.2485 311.581 56.8499 310.14C56.5924 308.968 56.6571 307.796 57.044 306.624C57.2495 306.044 57.4794 305.475 57.7335 304.917C57.9876 304.358 58.266 303.811 58.5687 303.275L62.5288 296.024C63.1519 294.784 63.861 293.613 64.6562 292.51C65.4866 291.394 66.5167 290.515 67.7463 289.873C68.4152 289.562 69.1723 289.38 70.0176 289.325C71.0306 289.288 71.9861 289.474 72.8841 289.883C74.0248 290.402 75.0639 291.08 76.0013 291.917C77.2433 292.922 78.1176 294.155 78.6244 295.617C78.9744 297.036 78.8512 298.401 78.2545 299.711L78.1054 300.039C77.3321 301.416 76.2567 302.523 74.8791 303.361L75.2432 303.526C76.3353 304.024 77.2353 304.814 77.9431 305.898C78.6509 306.982 79 308.211 78.9904 309.583C78.8992 310.685 78.6493 311.684 78.2405 312.582C77.5886 314.014 76.5341 315.204 75.0769 316.152C71.5822 318.165 67.699 318.199 63.4275 316.255ZM69.4615 300.587C69.6425 300.64 69.8985 300.625 70.2296 300.541C70.8432 300.351 71.3918 300.015 71.8755 299.532C72.3502 299.133 72.7323 298.648 73.0217 298.076C73.309 297.445 73.3049 296.843 73.0095 296.269C72.8199 295.977 72.5916 295.771 72.3246 295.649C72.0334 295.517 71.6141 295.472 71.0667 295.516C70.1618 295.573 69.4442 296.184 68.9139 297.349C68.6487 297.931 68.484 298.486 68.4197 299.014C68.3133 299.698 68.5514 300.172 69.1339 300.438L69.4615 300.587ZM65.9472 309.755C66.7945 310.082 67.6617 310.301 68.5488 310.412C69.0409 310.489 69.5419 310.483 70.0517 310.393C70.7161 310.285 71.1919 309.915 71.4792 309.284C71.5786 309.066 71.6273 308.766 71.6254 308.384C71.6476 308.013 71.5386 307.641 71.2983 307.268C70.9212 306.745 70.4535 306.356 69.8953 306.102C69.4342 305.892 68.7181 305.727 67.7471 305.608C66.7762 305.488 66.1327 305.678 65.8168 306.179C65.6468 306.424 65.5065 306.668 65.396 306.911L65.227 307.185C65.1033 307.393 64.9862 307.618 64.8757 307.86C64.5221 308.637 64.8793 309.268 65.9472 309.755Z" fill="#FFF7E3"/>
<path d="M97.0243 315.117C93.6989 314.885 90.9689 313.662 88.8343 311.447C86.7014 309.205 85.699 306.391 85.8273 303.006C86.2278 299.103 87.8992 296.04 90.8414 293.817C93.2766 292.016 95.8916 291.202 98.6863 291.374C99.2985 291.412 99.9082 291.489 100.515 291.607C103.013 292.268 105.097 293.572 106.767 295.518C108.465 297.44 109.362 299.806 109.456 302.617L109.412 303.336C109.215 306.53 107.975 309.312 105.692 311.683C103.41 314.027 100.521 315.172 97.0243 315.117ZM97.2523 308.158C98.9824 308.264 100.407 307.697 101.525 306.457C102.414 305.47 102.901 304.284 102.986 302.9L103.008 302.541C102.932 301.173 102.465 300.089 101.606 299.288C100.746 298.487 99.6822 297.981 98.4128 297.769L98.2132 297.757C96.7759 297.669 95.4922 298.124 94.362 299.123C93.26 300.097 92.6175 301.42 92.4345 303.092C92.3861 304.746 92.8955 306.019 93.9626 306.913C94.8781 307.664 95.9747 308.079 97.2523 308.158Z" fill="#FFF7E3"/>
<path d="M117.586 318.765C115.67 318.598 114.568 317.15 114.28 314.42C114.093 312.706 114.037 310.664 114.111 308.292C114.155 306.879 114.243 305.334 114.375 303.658C114.436 302.566 114.649 301.278 115.016 299.796C115.383 298.286 115.983 296.998 116.817 295.93C117.678 294.836 118.829 294.312 120.268 294.357L120.468 294.363C121.635 294.559 122.73 295.381 123.753 296.826C124.775 298.272 125.67 299.928 126.439 301.793C127.235 303.632 127.865 305.252 128.328 306.654L128.982 308.795L128.873 307.151C128.773 306.081 128.707 304.771 128.676 303.223C128.647 302.422 128.645 301.635 128.669 300.862C128.693 300.089 128.764 299.117 128.88 297.947C128.997 296.777 129.284 295.692 129.742 294.692C130.201 293.666 130.883 293.167 131.79 293.195C133.356 293.457 134.458 294.892 135.097 297.5C135.688 299.947 135.935 302.702 135.84 305.767C135.833 305.981 135.775 306.993 135.665 308.804C135.583 310.588 135.116 312.722 134.265 315.203C133.414 317.684 132.281 318.93 130.867 318.939C129.752 318.771 128.631 317.909 127.506 316.353C126.381 314.77 125.357 312.978 124.432 310.974C123.507 308.971 122.763 307.187 122.198 305.622L121.349 303.315C121.601 305.51 121.693 307.701 121.624 309.886C121.619 310.073 121.582 310.806 121.516 312.084C121.449 313.363 121.098 314.806 120.461 316.413C119.824 317.994 118.866 318.778 117.586 318.765Z" fill="#FFF7E3"/>
<path d="M147.986 320.418C147.073 320.045 146.283 319.405 145.616 318.499C144.592 316.986 143.986 315.298 143.796 313.435C143.196 309.617 143.599 305.951 145.007 302.435C146.378 299.078 147.858 297.148 149.447 296.644C150.137 296.437 150.802 296.464 151.444 296.726L151.741 296.847C152.81 297.543 153.372 298.565 153.426 299.912C153.424 300.833 153.252 301.714 152.909 302.553C152.697 303.071 152.223 303.915 151.487 305.083C150.855 306.064 150.393 306.912 150.101 307.628C149.738 308.517 149.558 309.451 149.56 310.432C149.6 311.11 149.873 311.64 150.381 312.02L150.699 312.193C151.044 312.334 151.463 312.332 151.954 312.187C152.961 311.908 153.808 310.929 154.494 309.25C154.665 308.83 154.8 308.395 154.897 307.946L154.943 307.834C155.06 307.335 155.21 306.863 155.391 306.419C155.684 305.703 156.058 305.035 156.513 304.414C156.952 303.903 157.48 303.528 158.096 303.29C158.746 303.037 159.368 303.032 159.96 303.274C160.479 303.485 160.887 303.825 161.186 304.293C161.91 305.482 161.889 307.014 161.122 308.89L160.926 309.372C159.403 313.099 157.101 316.264 154.022 318.866C152.939 319.893 151.697 320.537 150.293 320.799C149.446 320.828 148.677 320.701 147.986 320.418Z" fill="#FFF7E3"/>
<path d="M167.639 330.433C167.056 330.245 166.391 329.96 165.645 329.579C164.933 329.181 164.32 328.563 163.806 327.724C163.06 326.475 162.917 325.14 163.376 323.719C163.605 323.008 163.991 322.376 164.534 321.823C165.345 321.048 166.131 320.783 166.892 321.029C167.29 321.185 167.613 321.443 167.861 321.804C168.109 322.164 168.336 322.546 168.542 322.948L168.568 322.999C169.042 324.048 169.725 324.927 170.617 325.636C170.871 325.802 171.151 325.934 171.456 326.032C171.684 326.106 172.001 326.166 172.406 326.213C172.845 326.243 173.282 326.104 173.718 325.796C174.187 325.471 174.495 325.08 174.642 324.623C174.675 324.522 174.724 324.285 174.788 323.914C174.877 323.55 174.822 323.07 174.622 322.473C174.071 321.23 173.196 320.163 171.998 319.272C171.157 318.58 170.437 317.816 169.839 316.978C169.239 315.972 168.959 314.887 168.998 313.722C169.026 313.115 169.126 312.545 169.298 312.012C169.47 311.479 169.718 310.971 170.043 310.487C171.517 308.525 173.497 307.511 175.984 307.445C176.929 307.47 177.82 307.617 178.658 307.888C179.952 308.305 181.127 309.007 182.182 309.992C182.922 310.651 183.469 311.43 183.823 312.329C184.126 313.127 184.154 313.907 183.909 314.668C183.687 315.354 183.3 315.859 182.747 316.185C182.201 316.485 181.649 316.545 181.091 316.365C180.457 316.16 179.871 315.803 179.335 315.294L178.876 314.893C178.545 314.618 178.087 314.387 177.503 314.198C177.047 314.051 176.608 314.063 176.188 314.236C175.97 314.39 175.82 314.594 175.739 314.847C175.681 315.025 175.659 315.312 175.671 315.708C175.717 316.087 175.821 316.457 175.985 316.818C176.415 317.658 176.987 318.403 177.701 319.054L177.919 319.292C178.556 319.834 179.115 320.449 179.593 321.136C180.46 322.704 180.631 324.301 180.107 325.925C179.992 326.28 179.831 326.649 179.624 327.03C178.52 328.887 176.917 330.121 174.814 330.732C172.493 331.327 170.101 331.228 167.639 330.433Z" fill="#FFF7E3"/>
<path d="M50.4266 358.863L50.2729 358.818C48.633 358.346 47.2027 357.531 45.982 356.374C43.4973 353.826 42.3032 350.748 42.3997 347.14C42.4651 345.855 42.6676 344.623 43.0075 343.444C43.5984 341.394 44.6048 339.492 46.0265 337.737C47.702 335.584 49.7973 333.995 52.3126 332.972C54.7214 332.029 57.1301 331.905 59.5386 332.599C60.5379 332.887 61.3793 333.338 62.0629 333.951C62.6256 334.502 62.9354 335.16 62.9922 335.926C62.9952 336.204 62.9598 336.472 62.8859 336.728C62.7603 337.164 62.4625 337.619 61.9925 338.094C60.9644 339.157 59.196 339.563 56.6875 339.312L55.6217 339.255C52.688 339.13 50.6159 340.156 49.4056 342.333C49.1702 342.765 48.986 343.211 48.853 343.672C48.6166 344.492 48.5633 345.351 48.693 346.249C49.1639 348.466 50.5524 349.907 52.8584 350.572C53.499 350.757 54.1911 350.859 54.9346 350.879L54.973 350.89C55.8925 350.878 56.6853 350.968 57.3515 351.16C58.1714 351.396 58.7638 351.844 59.1285 352.504C59.6317 353.454 59.7467 354.403 59.4733 355.351C59.3921 355.633 59.2852 355.908 59.1527 356.175C58.2886 357.535 57.0264 358.448 55.366 358.913C53.7386 359.36 52.0921 359.343 50.4266 358.863Z" fill="#FFF7E3"/>
<path d="M70.0965 356.412C69.7306 356.338 69.3649 356.196 68.9994 355.986C68.3365 355.497 67.9564 354.89 67.859 354.163C67.7873 353.577 67.8284 352.905 67.9821 352.147C68.6128 349.037 69.8054 346.041 71.56 343.159C73.0047 340.731 74.8383 338.599 77.0607 336.764C78.4654 335.607 79.8395 335.138 81.1829 335.356C82.6359 335.705 83.7652 336.777 84.571 338.573C85.8605 341.338 86.5222 344.18 86.5562 347.098C86.5856 349.77 86.2929 352.623 85.678 355.654C85.5402 356.334 85.3503 356.935 85.1083 357.457C84.8664 357.979 84.4312 358.381 83.8029 358.661C83.3003 358.859 82.6962 358.886 81.9905 358.743C81.4678 358.637 81.0056 358.434 80.6037 358.135C79.7794 357.369 79.2955 356.468 79.1519 355.433C79.0135 354.371 79.053 353.304 79.2703 352.232L79.7082 349.872C79.248 349.86 78.7827 349.807 78.3122 349.712C77.9464 349.637 77.5858 349.537 77.2305 349.41C76.7125 351.428 75.6826 353.219 74.1409 354.784C73.5429 355.451 72.7884 355.951 71.8775 356.284C71.2651 356.486 70.6714 356.529 70.0965 356.412ZM79.3982 345.565C79.5811 345.602 79.8087 345.553 80.081 345.417C80.3586 345.256 80.5607 344.998 80.6872 344.642L80.8297 344.141C80.9781 343.409 80.9747 342.755 80.8193 342.18C80.7367 341.782 80.5127 341.478 80.1471 341.268L79.9983 341.197C79.8415 341.165 79.6292 341.34 79.3615 341.721L79.2984 341.83C79.0148 342.29 78.8199 342.781 78.7139 343.303C78.5867 343.931 78.5983 344.477 78.7487 344.943C78.8419 345.289 79.0584 345.496 79.3982 345.565Z" fill="#FFF7E3"/>
<path d="M107.919 370.182C107.718 370.111 107.525 370.014 107.342 369.893C106.071 368.848 105.813 367.144 106.566 364.78L108.087 358.571C108.475 357.238 108.303 356.328 107.569 355.841L107.381 355.775C107.079 355.668 106.767 355.67 106.445 355.782C105.825 356.015 105.278 356.599 104.805 357.535C104.435 358.338 103.969 358.894 103.407 359.204C103.015 359.433 102.617 359.476 102.215 359.333C101.562 359.102 101.14 358.415 100.951 357.273L100.927 357.222C100.809 355.878 100.373 355.073 99.6187 354.806C98.9652 354.574 98.2875 354.73 97.5856 355.273C96.9843 355.853 96.5285 356.54 96.2183 357.335C95.5419 358.765 94.8574 360.177 94.1647 361.573C93.4122 363.456 92.3668 364.33 91.0283 364.195L90.7644 364.102C90.136 363.879 89.7025 363.386 89.4639 362.622C89.2285 361.69 89.2285 360.573 89.4639 359.27C89.4865 358.967 89.5261 358.655 89.5828 358.336C89.9137 356.444 90.3954 354.606 91.0279 352.822C91.8653 350.459 92.9622 348.203 94.3185 346.052C94.9561 344.892 95.805 343.934 96.8651 343.178C98.1011 342.484 99.2973 342.342 100.453 342.752C100.68 342.832 101.181 343.095 101.957 343.54C102.767 343.968 103.211 345.031 103.288 346.728L103.236 347.473C103.178 347.877 103.149 348.277 103.15 348.673C103.185 349.053 103.302 349.364 103.5 349.603C103.723 349.852 103.96 350.021 104.211 350.11C104.764 350.306 105.326 350.237 105.898 349.902C106.607 349.417 107.159 348.778 107.553 347.985L107.698 347.696C108.532 345.983 109.704 345.069 111.216 344.954C111.849 344.924 112.442 345.007 112.995 345.203L113.661 345.481C115.144 346.403 116.098 347.745 116.52 349.508C117.119 352.606 116.394 357.045 114.345 362.826C113.98 363.857 113.59 364.879 113.174 365.891L113.107 366.08C112.662 367.336 111.987 368.441 111.084 369.394C110.552 369.856 109.939 370.149 109.245 370.27C108.763 370.354 108.321 370.325 107.919 370.182Z" fill="#FFF7E3"/>
<path d="M121.381 374.413L121.031 374.329C120.59 374.223 120.168 374.039 119.764 373.778C118.833 373.088 118.256 372.181 118.032 371.058C117.672 369.244 117.913 366.587 118.754 363.086C119.022 361.971 119.342 360.869 119.713 359.779L120.212 358.047C120.61 356.388 121.337 354.903 122.392 353.593C123.789 352.119 125.54 351.223 127.646 350.906C128.834 350.753 129.999 350.813 131.14 351.088C131.996 351.293 132.823 351.615 133.623 352.054C135.645 353.226 136.947 354.883 137.53 357.025C137.707 358 137.693 358.915 137.487 359.771C137.225 360.86 136.643 361.858 135.739 362.765C134.378 363.864 132.789 364.484 130.973 364.623L130.682 364.636C127.827 364.992 126.071 366.476 125.416 369.089L125.257 369.75C125.102 370.398 124.917 371.053 124.703 371.715C124.428 372.746 123.866 373.543 123.018 374.107C122.515 374.37 121.97 374.472 121.381 374.413ZM127.57 360.638C127.752 360.682 127.939 360.699 128.133 360.691C128.76 360.595 129.294 360.312 129.736 359.842C130.178 359.372 130.471 358.839 130.614 358.243C130.732 357.75 130.666 357.282 130.417 356.838C130.226 356.49 129.942 356.244 129.566 356.099C129.099 355.986 128.656 356.003 128.237 356.15C127.529 356.473 127.056 357.127 126.819 358.113C126.632 358.89 126.632 359.521 126.817 360.004C126.93 360.333 127.181 360.544 127.57 360.638Z" fill="#FFF7E3"/>
<path d="M138.255 373.848C137.903 373.722 137.562 373.528 137.231 373.268C136.645 372.689 136.357 372.033 136.366 371.299C136.379 370.709 136.517 370.05 136.779 369.322C137.852 366.336 139.465 363.543 141.617 360.945C143.397 358.751 145.52 356.907 147.984 355.412C149.541 354.47 150.968 354.204 152.266 354.613C153.653 355.169 154.616 356.393 155.154 358.287C156.031 361.209 156.275 364.116 155.887 367.009C155.53 369.657 154.829 372.437 153.782 375.348C153.548 376.001 153.273 376.568 152.958 377.05C152.644 377.532 152.155 377.866 151.493 378.053C150.967 378.176 150.365 378.116 149.688 377.872C149.186 377.692 148.757 377.424 148.403 377.07C147.698 376.194 147.349 375.232 147.357 374.187C147.373 373.116 147.566 372.066 147.936 371.037L148.71 368.765C148.257 368.687 147.804 368.567 147.352 368.404C147.001 368.278 146.659 368.127 146.325 367.95C145.521 369.871 144.244 371.495 142.492 372.821C141.804 373.395 140.985 373.781 140.036 373.978C139.401 374.09 138.807 374.047 138.255 373.848ZM149.026 364.458C149.201 364.521 149.434 364.505 149.723 364.411C150.021 364.291 150.258 364.065 150.434 363.731L150.648 363.255C150.9 362.553 150.991 361.905 150.921 361.313C150.896 360.908 150.719 360.575 150.387 360.314L150.25 360.222C150.1 360.168 149.864 360.31 149.544 360.649L149.466 360.748C149.119 361.162 148.856 361.619 148.675 362.121C148.459 362.724 148.391 363.266 148.473 363.749C148.515 364.104 148.699 364.34 149.026 364.458Z" fill="#FFF7E3"/>
<path d="M165.133 378.929L164.934 378.945C163.905 378.785 163.152 378.23 162.675 377.277C162.283 376.372 162.038 375.295 161.939 374.045C161.721 372.297 161.544 370.559 161.407 368.831C161.055 364.365 161.011 360.757 161.276 358.008C161.504 356.492 162.215 355.339 163.41 354.549C163.843 354.274 164.259 354.121 164.658 354.09C165.429 354.029 166.179 354.384 166.909 355.156C167.483 355.993 167.839 356.942 167.976 358.001C168.366 359.896 168.636 361.787 168.785 363.675C169.078 367.397 168.917 371.114 168.3 374.827C168.165 375.828 167.85 376.749 167.355 377.59C166.804 378.41 166.063 378.856 165.133 378.929Z" fill="#FFF7E3"/>
<path d="M179.632 380.401C177.773 379.822 176.166 378.749 174.81 377.182C172.517 374.234 171.769 370.803 172.569 366.891L172.828 365.924C173.034 365.262 173.287 364.628 173.587 364.024C175.43 360.436 178.14 358.012 181.717 356.752C183.879 356.085 185.954 356.06 187.94 356.678C188.551 356.869 189.146 357.11 189.725 357.402C191.379 358.28 192.422 359.415 192.855 360.806C193.054 361.511 193.043 362.22 192.821 362.932C192.789 363.034 192.689 363.31 192.521 363.761C192.353 364.211 191.868 364.605 191.065 364.941C190.378 365.174 189.614 365.16 188.774 364.898C188.29 364.747 187.69 364.477 186.974 364.086C186.257 363.696 185.696 363.437 185.288 363.31C183.481 362.747 181.729 363.081 180.033 364.313C178.92 365.195 178.173 366.248 177.793 367.47C177.579 368.157 177.475 368.893 177.482 369.677C177.63 371.985 178.565 373.645 180.289 374.657C180.579 374.803 180.864 374.92 181.144 375.007C181.475 375.11 181.779 375.163 182.058 375.166C182.74 375.127 183.254 374.868 183.598 374.389C183.656 374.295 183.704 374.184 183.744 374.057C183.981 373.293 183.604 372.756 182.611 372.447C182 372.257 181.595 372.033 181.396 371.776C181.118 371.41 181.059 370.973 181.218 370.463C181.503 369.547 182.219 369.085 183.366 369.079C183.956 369.068 184.672 369.193 185.512 369.454C186.861 369.874 187.932 370.515 188.726 371.377L188.764 371.389C189.049 371.729 189.297 372.099 189.507 372.5C190.046 373.729 190.125 374.955 189.745 376.177C189.594 376.66 189.355 377.159 189.028 377.671C188.019 379.117 186.558 380.086 184.645 380.58C182.983 380.984 181.312 380.924 179.632 380.401Z" fill="#FFF7E3"/>
<path d="M195.859 376.178C194.089 375.428 193.488 373.71 194.057 371.024C194.408 369.337 194.986 367.377 195.789 365.144C196.267 363.814 196.828 362.372 197.472 360.818C197.867 359.798 198.468 358.64 199.274 357.343C200.089 356.021 201.059 354.981 202.181 354.222C203.338 353.448 204.594 353.305 205.949 353.792L206.137 353.86C207.187 354.407 207.975 355.526 208.501 357.217C209.026 358.908 209.367 360.759 209.522 362.77C209.711 364.766 209.81 366.501 209.817 367.978L209.778 370.216L210.182 368.619C210.417 367.57 210.759 366.304 211.207 364.822C211.428 364.051 211.669 363.302 211.931 362.574C212.192 361.846 212.559 360.944 213.031 359.867C213.504 358.79 214.112 357.847 214.857 357.037C215.61 356.203 216.413 355.939 217.266 356.246C218.675 356.979 219.28 358.685 219.082 361.362C218.889 363.871 218.273 366.569 217.235 369.455C217.163 369.655 216.795 370.6 216.131 372.288C215.502 373.961 214.399 375.845 212.823 377.942C211.247 380.04 209.785 380.874 208.437 380.446C207.428 379.942 206.629 378.776 206.039 376.948C205.458 375.096 205.038 373.074 204.777 370.883C204.516 368.693 204.359 366.766 204.305 365.103L204.211 362.646C203.772 364.812 203.183 366.924 202.443 368.981C202.38 369.157 202.119 369.843 201.661 371.038C201.203 372.234 200.422 373.497 199.32 374.83C198.226 376.137 197.073 376.586 195.859 376.178Z" fill="#FFF7E3"/>
<path d="M378.876 532.03C377.654 532.414 376.394 532.404 375.094 532.001C372.99 531.264 371.357 529.401 370.195 526.412L369.522 524.401C369.155 523.231 368.838 522.044 368.573 520.842C368.59 520.809 368.591 520.766 368.575 520.716C368.012 518.656 367.678 516.567 367.572 514.448C367.514 512.482 367.889 510.604 368.696 508.813C369.701 506.849 371.206 505.412 373.213 504.503C373.502 504.356 373.799 504.235 374.105 504.139C374.995 503.86 375.911 503.796 376.853 503.947C378.182 504.173 379.178 504.853 379.841 505.986L380.035 506.47C380.227 507.081 380.248 507.773 380.1 508.546C379.968 509.286 379.627 509.98 379.076 510.628C377.983 511.866 376.622 512.782 374.992 513.377C374.407 513.561 373.853 513.846 373.332 514.234C372.836 514.613 372.574 515.114 372.546 515.738L372.604 516.055C372.732 516.462 373.005 516.754 373.424 516.93C373.742 517.054 374.054 517.068 374.359 516.972C374.664 516.876 375.017 516.709 375.418 516.472C375.811 516.209 376.185 516.021 376.541 515.91C376.897 515.798 377.252 515.77 377.605 515.827C378.21 515.973 378.592 516.3 378.752 516.809C378.912 517.318 378.822 517.877 378.482 518.487C378.16 519.063 377.691 519.573 377.076 520.018C376.461 520.462 375.971 520.994 375.606 521.611C375.293 522.129 375.22 522.655 375.388 523.189C375.444 523.367 375.538 523.533 375.67 523.687C376.142 524.21 376.759 524.352 377.522 524.112C377.751 524.04 377.956 523.934 378.135 523.794C378.906 523.133 379.428 522.214 379.702 521.038C379.918 520.3 380.221 519.618 380.611 518.992C381.121 518.301 381.783 517.828 382.597 517.572C383.309 517.349 384.039 517.357 384.785 517.598C385.532 517.839 386.148 518.289 386.634 518.947C386.873 519.263 387.052 519.612 387.172 519.994C387.284 520.35 387.336 520.739 387.329 521.16C387.252 522.162 386.952 523.123 386.43 524.041C385.64 525.799 384.629 527.43 383.396 528.935C382.189 530.431 380.682 531.463 378.876 532.03Z" fill="#FFF7E3"/>
<path d="M412.256 515.922C412.001 516 411.734 516.04 411.456 516.042C409.739 515.898 408.486 514.539 407.697 511.963L405.339 505.49C404.902 504.062 404.211 503.353 403.266 503.364L402.987 503.408C402.681 503.501 402.41 503.71 402.174 504.033C401.964 504.348 401.832 504.737 401.778 505.2C401.742 505.629 401.756 506.085 401.82 506.567C401.879 506.94 401.899 507.324 401.881 507.72C401.862 508.116 401.76 508.51 401.573 508.902C401.386 509.294 401.093 509.565 400.693 509.715C399.887 509.906 399.065 509.544 398.227 508.63L398.165 508.565C397.862 508.212 397.528 507.895 397.164 507.617C396.592 507.206 396.012 507.09 395.426 507.27C394.763 507.473 394.299 508.006 394.033 508.868C393.851 509.732 393.859 510.622 394.055 511.538L394.754 516.553C395.182 518.681 394.773 520.076 393.525 520.736L393.372 520.783C393.015 520.893 392.643 520.909 392.257 520.832C391.863 520.729 391.501 520.547 391.17 520.286C390.518 519.705 390.016 519.022 389.664 518.237L389.168 517.301C388.381 515.73 387.706 514.026 387.143 512.19C386.191 509.079 385.671 505.878 385.584 502.586C385.458 501.174 385.631 499.825 386.101 498.537C386.732 497.228 387.647 496.391 388.846 496.024C389.152 495.93 389.807 495.841 390.813 495.756C391.819 495.671 392.865 496.355 393.951 497.807C394.106 498.039 394.252 498.287 394.388 498.552C394.59 498.936 394.813 499.3 395.057 499.644C395.294 499.962 395.58 500.167 395.915 500.26C396.276 500.344 396.609 500.34 396.915 500.246C397.476 500.075 397.916 499.689 398.234 499.09C398.559 498.237 398.661 497.341 398.541 496.402C398.535 496.292 398.513 496.174 398.474 496.046C398.204 493.981 398.714 492.459 400.004 491.478C400.477 491.11 400.981 490.844 401.516 490.68C401.822 490.587 402.153 490.527 402.508 490.502C404.357 490.438 405.999 491.065 407.434 492.383C408.711 493.637 409.72 495.113 410.463 496.81C411.399 498.866 412.195 500.965 412.851 503.107C413.436 505.019 413.911 506.979 414.275 508.988C414.694 510.449 414.776 511.902 414.521 513.346C414.326 514.075 413.948 514.707 413.386 515.242C413.066 515.563 412.69 515.79 412.256 515.922Z" fill="#FFF7E3"/>
<path d="M425.407 508.505C424.148 508.736 422.897 508.572 421.656 508.014C419.659 507.024 418.266 504.975 417.479 501.866L417.058 499.788C416.837 498.581 416.668 497.365 416.552 496.139C416.573 496.108 416.579 496.067 416.569 496.014C416.263 493.901 416.188 491.787 416.342 489.671C416.525 487.713 417.127 485.894 418.148 484.216C419.386 482.39 421.056 481.148 423.159 480.492C423.464 480.381 423.774 480.298 424.089 480.24C425.007 480.072 425.924 480.12 426.84 480.386C428.131 480.773 429.036 481.57 429.555 482.776L429.688 483.28C429.804 483.909 429.74 484.599 429.498 485.348C429.277 486.066 428.854 486.713 428.227 487.289C426.991 488.383 425.528 489.126 423.837 489.517C423.234 489.628 422.65 489.843 422.085 490.164C421.546 490.479 421.225 490.945 421.121 491.56L421.139 491.882C421.216 492.302 421.452 492.625 421.846 492.851C422.146 493.013 422.454 493.065 422.769 493.007C423.084 492.949 423.454 492.827 423.881 492.64C424.303 492.428 424.697 492.287 425.065 492.22C425.432 492.153 425.787 492.169 426.131 492.269C426.713 492.487 427.052 492.859 427.149 493.383C427.245 493.908 427.087 494.452 426.675 495.016C426.285 495.548 425.757 495.997 425.092 496.363C424.427 496.729 423.876 497.196 423.438 497.764C423.064 498.24 422.927 498.753 423.028 499.303C423.062 499.487 423.135 499.663 423.247 499.833C423.651 500.409 424.247 500.625 425.034 500.481C425.27 500.438 425.485 500.358 425.681 500.241C426.527 499.679 427.158 498.831 427.573 497.698C427.878 496.991 428.262 496.351 428.726 495.778C429.317 495.155 430.032 494.766 430.871 494.612C431.606 494.478 432.328 494.576 433.04 494.906C433.751 495.237 434.307 495.758 434.709 496.471C434.908 496.814 435.043 497.182 435.115 497.576C435.182 497.943 435.186 498.335 435.127 498.753C434.928 499.738 434.514 500.655 433.883 501.502C432.883 503.15 431.68 504.644 430.272 505.987C428.891 507.325 427.269 508.164 425.407 508.505Z" fill="#FFF7E3"/>
<path d="M446.955 499.895C444.632 500.23 442.674 499.543 441.079 497.834C440.52 497.133 440.095 496.333 439.803 495.432C439.537 494.527 439.325 493.615 439.165 492.695L437.082 481.922L436.859 480.661C436.798 480.239 436.75 479.72 436.715 479.105C436.677 478.464 436.789 477.748 437.051 476.955C437.758 475.317 439.048 474.363 440.921 474.092C441.713 473.978 442.515 474.024 443.326 474.23C444.16 474.406 444.86 474.964 445.427 475.906C445.968 477.041 446.329 478.228 446.508 479.468C446.573 479.917 446.613 480.383 446.629 480.865C447.011 483.505 447.319 486.572 447.555 490.068L448.691 489.257C449.09 489.037 449.501 488.897 449.923 488.836C450.214 488.794 450.523 488.79 450.851 488.823C452.19 489.142 453.129 489.949 453.666 491.245C453.799 491.603 453.89 491.954 453.94 492.297C454.069 493.194 453.945 494.102 453.565 495.019C453.009 496.204 452.211 497.208 451.172 498.032C449.917 499.049 448.512 499.669 446.955 499.895Z" fill="#FFF7E3"/>
<path d="M455.384 512.538L454.699 512.758C453.175 513.247 452.371 513.491 452.287 513.49L451.944 513.6C451.885 513.591 451.818 513.599 451.741 513.623C451.64 513.656 451.518 513.667 451.374 513.657C449.292 514.325 447.142 514.651 444.924 514.634C439.835 515.007 436.345 513.732 434.455 510.81C434.265 510.479 434.117 510.148 434.011 509.818C433.734 508.955 433.774 508.074 434.13 507.175C434.477 506.252 435.312 505.536 436.633 505.028C438.655 504.435 440.99 504.596 443.636 505.512C445.148 506.035 446.69 506.478 448.263 506.841C449.988 507.24 451.691 507.226 453.374 506.798L453.615 506.763L455.215 506.249C456.18 505.94 456.709 505.756 456.802 505.698L457.514 505.428L457.603 505.315C459.738 504.462 461.549 503.167 463.036 501.429L463.446 501.004L464.835 498.92C465.657 497.116 466.231 495.195 466.557 493.158C466.955 491.518 467.094 489.723 466.972 487.774C466.995 487.234 466.986 486.901 466.946 486.774L466.024 486.65C462.426 486.348 459.551 484.764 457.399 481.898L456.368 480.254C455.776 478.932 455.418 478.08 455.296 477.699C455.197 477.563 455.077 477.279 454.939 476.848L454.538 475.338C454.49 475.186 454.462 475.055 454.454 474.945C454.028 473.093 454.116 471.665 454.718 470.66C455.002 470.148 455.406 469.794 455.931 469.598C456.54 469.487 457.13 469.536 457.701 469.744C458.281 469.894 458.788 470.166 459.222 470.558C459.582 470.807 460.251 472.021 461.23 474.199C461.774 475.369 462.335 476.505 462.912 477.608C463.482 478.686 464.056 479.426 464.633 479.829C464.926 480.043 465.199 480.109 465.453 480.028C465.732 479.938 465.992 479.701 466.233 479.315C466.597 478.442 466.788 477.555 466.807 476.653C466.843 475.717 466.819 474.772 466.737 473.818C466.282 470.043 466.971 467.694 468.803 466.77L469.108 466.673C469.844 466.436 470.513 466.6 471.113 467.163C471.646 467.776 472.019 468.413 472.23 469.073C472.483 469.86 472.653 470.87 472.74 472.102C473.65 481.136 473.093 489.479 471.067 497.13L470.884 497.609C470.821 497.937 470.712 498.252 470.557 498.554L470.32 499.386L470.23 499.499C467.138 506.008 462.189 510.355 455.384 512.538Z" fill="#FFF7E3"/>
<path d="M485.037 493.001C484.72 493.046 484.385 493.054 484.03 493.024C482.439 492.632 481.458 491.426 481.088 489.405C480.918 488.594 480.776 487.793 480.662 487.001C480.254 484.15 480.229 481.15 480.586 478.001C480.966 474.821 481.896 471.725 483.377 468.711C483.724 467.934 484.201 467.219 484.808 466.567C485.509 465.82 486.387 465.371 487.443 465.219C488.262 465.102 489.088 465.226 489.921 465.592C490.751 465.931 491.505 466.402 492.184 467.005C494.889 469.339 496.947 472.048 498.359 475.132C499.793 478.186 500.865 481.346 501.575 484.612L501.745 485.517C501.806 485.939 501.823 486.435 501.796 487.005C501.793 487.544 501.539 488.119 501.033 488.73C500.521 489.289 499.802 489.634 498.878 489.766C498.377 489.838 497.873 489.803 497.368 489.659C496.127 489.271 495.18 488.585 494.528 487.601C493.818 486.41 493.328 485.147 493.056 483.812L492.461 481.351C491.642 481.657 490.798 481.872 489.927 481.997L489.61 482.042L489.672 482.478C489.997 484.748 489.755 487.005 488.945 489.249C488.602 490.241 488.042 491.13 487.266 491.914C486.598 492.522 485.856 492.884 485.037 493.001ZM489.931 476.945C490.195 476.907 490.443 476.764 490.677 476.515C490.915 476.104 490.992 475.608 490.909 475.027C490.867 474.737 490.799 474.45 490.705 474.168C490.323 472.821 489.68 472.092 488.775 471.979L488.696 471.99C488.405 472.032 488.23 472.313 488.17 472.833L488.153 472.997C488.089 473.491 488.091 473.976 488.159 474.451C488.239 475.006 488.41 475.547 488.674 476.075C488.758 476.278 488.878 476.463 489.037 476.629C489.289 476.889 489.587 476.994 489.931 476.945Z" fill="#FFF7E3"/>
<path d="M490.334 536.532C488.015 536.892 485.785 536.604 483.642 535.669C481.727 534.805 480.082 533.509 478.708 531.78C477.16 529.807 476.192 527.569 475.803 525.066C475.337 522.062 475.688 519.106 476.856 516.199C477.717 514.096 478.896 512.307 480.394 510.833C482.322 508.995 484.485 507.891 486.883 507.518C487.594 507.408 488.316 507.363 489.048 507.385C491.248 507.475 492.928 508.132 494.09 509.355C494.652 510.023 495.001 510.792 495.136 511.661C495.148 511.741 495.184 512.059 495.244 512.616C495.303 513.174 494.987 513.83 494.295 514.585C493.713 515.188 492.883 515.573 491.802 515.741C491.433 515.798 490.694 515.819 489.585 515.802C488.714 515.748 488.001 515.764 487.448 515.85C485.287 516.186 483.631 517.428 482.48 519.576C481.74 521.068 481.487 522.564 481.72 524.066C481.847 524.883 482.121 525.691 482.541 526.489C483.901 528.814 485.726 530.056 488.017 530.213C488.451 530.227 488.84 530.207 489.182 530.154C489.551 530.096 489.874 530.006 490.152 529.882C490.845 529.477 491.247 528.942 491.36 528.277L491.338 527.876C491.195 526.954 490.583 526.576 489.503 526.744L489.305 526.775C488.646 526.877 488.114 526.838 487.708 526.658C487.211 526.412 486.922 526.025 486.84 525.498C486.746 524.892 486.862 524.334 487.188 523.825C487.526 523.394 487.922 523.077 488.375 522.871C488.825 522.639 489.259 522.478 489.676 522.386C490.116 522.264 490.534 522.172 490.929 522.11C492.51 521.865 493.934 521.995 495.199 522.5C495.688 522.694 496.133 522.949 496.532 523.265C497.714 524.269 498.419 525.508 498.648 526.984C498.91 528.671 498.58 530.287 497.66 531.833C497.124 532.726 496.451 533.518 495.641 534.211C494.106 535.448 492.337 536.221 490.334 536.532Z" fill="#FFF7E3"/>
<path d="M505.506 519.098C505.133 519.117 504.744 519.071 504.338 518.958C503.574 518.65 503.055 518.156 502.78 517.476C502.564 516.926 502.437 516.265 502.397 515.493C502.234 512.324 502.644 509.125 503.627 505.897C504.422 503.186 505.667 500.666 507.363 498.335C508.436 496.865 509.65 496.068 511.006 495.945C512.5 495.922 513.86 496.68 515.088 498.219C517.024 500.576 518.372 503.164 519.131 505.982C519.825 508.563 520.251 511.398 520.409 514.487C520.445 515.18 520.411 515.809 520.306 516.375C520.202 516.941 519.88 517.438 519.341 517.867C518.904 518.183 518.325 518.359 517.606 518.396C517.074 518.424 516.575 518.342 516.112 518.153C515.123 517.616 514.43 516.864 514.033 515.896C513.635 514.902 513.408 513.859 513.352 512.767L513.189 510.372C512.74 510.476 512.276 510.539 511.797 510.564C511.424 510.583 511.05 510.576 510.674 510.542C510.674 512.624 510.122 514.615 509.018 516.514C508.605 517.31 507.999 517.982 507.199 518.53C506.657 518.879 506.092 519.068 505.506 519.098ZM511.817 506.277C512.003 506.268 512.211 506.164 512.442 505.965C512.67 505.74 512.802 505.439 512.836 505.064L512.849 504.542C512.811 503.796 512.645 503.164 512.351 502.645C512.172 502.281 511.88 502.042 511.473 501.929L511.311 501.898C511.152 501.906 510.989 502.128 510.825 502.563L510.791 502.685C510.631 503.201 510.564 503.725 510.592 504.258C510.624 504.897 510.772 505.423 511.033 505.837C511.209 506.148 511.471 506.295 511.817 506.277Z" fill="#FFF7E3"/>
<path d="M545.522 510.344C545.31 510.323 545.1 510.276 544.893 510.202C543.408 509.494 542.746 507.903 542.908 505.427L542.889 499.034C542.944 497.647 542.557 496.805 541.729 496.51L541.53 496.49C541.211 496.459 540.909 496.537 540.623 496.723C540.077 497.099 539.687 497.797 539.454 498.819C539.288 499.688 538.97 500.34 538.499 500.776C538.173 501.092 537.798 501.23 537.373 501.188C536.683 501.121 536.109 500.556 535.65 499.493L535.614 499.449C535.176 498.174 534.559 497.497 533.763 497.42C533.073 497.352 532.452 497.667 531.902 498.363C531.458 499.07 531.181 499.847 531.072 500.694C530.759 502.244 530.435 503.78 530.099 505.301C529.823 507.31 529.018 508.41 527.687 508.602L527.408 508.575C526.745 508.51 526.205 508.136 525.79 507.452C525.337 506.604 525.067 505.519 524.982 504.198C524.931 503.898 524.894 503.587 524.873 503.263C524.738 501.348 524.763 499.448 524.947 497.563C525.191 495.069 525.712 492.614 526.51 490.2C526.849 488.921 527.443 487.786 528.289 486.797C529.322 485.826 530.449 485.401 531.67 485.52C531.908 485.543 532.458 485.677 533.318 485.922C534.208 486.143 534.894 487.067 535.378 488.695L535.508 489.431C535.548 489.837 535.617 490.232 535.713 490.617C535.839 490.978 536.026 491.25 536.276 491.436C536.553 491.623 536.824 491.73 537.089 491.756C537.673 491.813 538.202 491.61 538.676 491.148C539.247 490.507 539.629 489.754 539.821 488.888L539.892 488.574C540.288 486.71 541.206 485.54 542.646 485.065C543.253 484.883 543.849 484.82 544.432 484.877L545.145 484.987C546.807 485.525 548.056 486.598 548.89 488.207C550.218 491.069 550.584 495.553 549.988 501.657C549.881 502.745 549.748 503.831 549.589 504.914L549.57 505.113C549.44 506.44 549.052 507.674 548.404 508.817C547.999 509.394 547.475 509.825 546.831 510.11C546.383 510.308 545.947 510.385 545.522 510.344Z" fill="#FFF7E3"/>
<path d="M559.453 501.727C558.407 501.51 557.483 501.03 556.682 500.284C555.382 498.922 554.835 496.881 555.041 494.16C555.089 493.682 555.151 493.192 555.229 492.692C555.401 491.585 555.64 490.475 555.948 489.363L555.967 489.244C556.32 487.491 556.853 485.793 557.567 484.149C558.238 482.607 559.221 481.316 560.516 480.276C562.012 479.159 563.687 478.623 565.542 478.668L566.26 478.739C567.077 478.865 567.841 479.159 568.552 479.621C569.475 480.277 569.972 481.163 570.041 482.281L570.007 482.761C569.925 483.288 569.683 483.804 569.281 484.308C568.906 484.816 568.397 485.223 567.756 485.528C566.433 486.052 565.057 486.229 563.625 486.061L563.461 486.076C562.117 485.868 561.248 486.164 560.854 486.967L560.777 487.198C560.724 487.54 560.811 487.851 561.038 488.129C561.268 488.38 561.516 488.527 561.779 488.568C562.148 488.625 562.499 488.625 562.831 488.569C563.19 488.517 563.528 488.515 563.844 488.564C564.13 488.636 564.394 488.758 564.637 488.93C565.044 489.263 565.213 489.654 565.144 490.102C565.07 490.576 564.792 490.978 564.309 491.308C563.856 491.616 563.313 491.815 562.678 491.905C561.173 492.211 560.349 492.825 560.206 493.748C560.185 493.879 560.189 494.028 560.217 494.195C560.426 494.767 560.833 495.1 561.439 495.194C561.649 495.227 561.866 495.22 562.089 495.173C562.846 494.994 563.488 494.594 564.016 493.975L564.302 493.695C564.731 493.195 565.215 492.771 565.755 492.423C566.369 492.114 567.006 492.01 567.665 492.112C568.376 492.223 568.967 492.503 569.437 492.954C570.208 493.722 570.512 494.632 570.349 495.686C570.299 496.003 570.198 496.311 570.043 496.61C569.604 497.352 569.022 497.977 568.295 498.484C567.026 499.529 565.638 500.393 564.128 501.076C562.645 501.763 561.087 501.98 559.453 501.727Z" fill="#FFF7E3"/>
<path d="M438.326 580.058C437.953 580.054 437.567 579.984 437.168 579.846C436.425 579.492 435.937 578.967 435.704 578.272C435.523 577.71 435.436 577.042 435.444 576.269C435.476 573.096 436.081 569.928 437.259 566.767C438.219 564.11 439.617 561.67 441.452 559.448C442.613 558.046 443.874 557.326 445.234 557.286C446.727 557.354 448.038 558.194 449.169 559.805C450.958 562.277 452.145 564.942 452.729 567.801C453.263 570.42 453.515 573.276 453.484 576.369C453.477 577.062 453.404 577.688 453.265 578.247C453.126 578.806 452.775 579.282 452.211 579.677C451.755 579.965 451.166 580.106 450.447 580.099C449.913 580.094 449.421 579.982 448.97 579.764C448.016 579.168 447.37 578.375 447.033 577.385C446.697 576.368 446.534 575.313 446.545 574.22L446.529 571.82C446.075 571.895 445.608 571.93 445.128 571.926C444.755 571.922 444.381 571.891 444.009 571.834C443.881 573.913 443.208 575.867 441.99 577.695C441.529 578.463 440.883 579.097 440.051 579.595C439.488 579.91 438.913 580.064 438.326 580.058ZM445.411 567.648C445.597 567.65 445.811 567.559 446.053 567.375C446.295 567.164 446.445 566.872 446.502 566.499L446.547 565.979C446.555 565.233 446.428 564.591 446.166 564.056C446.01 563.681 445.733 563.424 445.334 563.287L445.174 563.246C445.014 563.244 444.839 563.456 444.648 563.88L444.607 564C444.415 564.505 444.317 565.024 444.311 565.557C444.305 566.197 444.42 566.732 444.655 567.161C444.812 567.482 445.064 567.645 445.411 567.648Z" fill="#FFF7E3"/>
<path d="M463.971 581.405C462.055 581.565 460.724 580.323 459.978 577.681C459.505 576.024 459.104 574.02 458.776 571.67C458.581 570.27 458.407 568.732 458.254 567.057C458.129 565.971 458.122 564.666 458.233 563.143C458.34 561.593 458.714 560.222 459.355 559.028C460.019 557.805 461.064 557.094 462.49 556.895L462.688 556.867C463.873 556.863 465.09 557.488 466.342 558.74C467.594 559.992 468.756 561.473 469.829 563.181C470.925 564.859 471.82 566.349 472.513 567.653L473.519 569.653L473.134 568.051C472.855 567.013 472.568 565.733 472.275 564.213C472.112 563.428 471.977 562.652 471.87 561.886C471.763 561.12 471.668 560.151 471.585 558.978C471.502 557.805 471.602 556.687 471.885 555.624C472.164 554.535 472.752 553.928 473.65 553.803C475.238 553.797 476.567 555.025 477.637 557.487C478.633 559.798 479.343 562.473 479.766 565.51C479.796 565.721 479.91 566.729 480.107 568.532C480.328 570.305 480.228 572.486 479.809 575.076C479.389 577.665 478.483 579.084 477.091 579.332C475.963 579.355 474.713 578.695 473.341 577.351C471.965 575.982 470.652 574.388 469.403 572.57C468.153 570.752 467.117 569.119 466.296 567.672L465.07 565.541C465.689 567.663 466.15 569.806 466.452 571.972C466.477 572.157 466.566 572.885 466.716 574.156C466.867 575.428 466.764 576.909 466.407 578.602C466.047 580.267 465.235 581.202 463.971 581.405Z" fill="#FFF7E3"/>
<path d="M498.181 571.171L497.553 571.296C496.429 571.521 495.294 571.625 494.148 571.609C491.696 571.581 489.865 570.927 488.658 569.645C487.691 568.478 487.048 567.098 486.73 565.502C486.474 564.493 486.244 563.478 486.041 562.458L485.61 560.301C485.276 558.627 485.057 556.849 484.953 554.966C484.85 553.083 485.256 551.371 486.171 549.829C487.281 548.166 488.751 547.152 490.581 546.787L491.491 546.646C493.646 546.678 495.659 547.364 497.531 548.704C499.811 550.179 501.687 552.089 503.161 554.432C504.023 555.892 504.611 557.406 504.924 558.975C505.143 560.074 505.232 561.198 505.19 562.349C504.979 565.246 503.856 567.591 501.821 569.384C500.744 570.251 499.53 570.847 498.181 571.171ZM496.018 565.851C496.593 565.736 497.114 565.483 497.579 565.091C498.866 563.91 499.283 562.181 498.829 559.906C498.374 557.631 497.016 555.523 494.752 553.582C493.57 552.431 492.496 551.952 491.528 552.145L490.94 552.262C490.323 552.44 490.231 553.614 490.664 555.784L490.962 557.071C491.818 560.816 492.533 563.311 493.108 564.556C493.604 565.68 494.402 566.133 495.5 565.914L496.018 565.851Z" fill="#FFF7E3"/>
<path d="M516.504 565.421C515.792 565.647 515.068 565.611 514.33 565.314C513.34 564.928 512.684 564.227 512.362 563.21C512.104 562.397 512.165 561.622 512.547 560.885C512.944 560.284 513.511 559.866 514.248 559.632C514.985 559.398 515.703 559.367 516.4 559.537C517.483 559.865 518.194 560.563 518.533 561.63C518.821 562.714 518.6 563.693 517.87 564.568C517.493 564.967 517.038 565.252 516.504 565.421Z" fill="#FFF7E3"/>
<path d="M527.152 560.485C526.438 560.701 525.714 560.656 524.98 560.349C523.995 559.951 523.348 559.242 523.038 558.221C522.791 557.404 522.863 556.63 523.254 555.899C523.658 555.302 524.23 554.892 524.97 554.667C525.71 554.443 526.428 554.42 527.123 554.6C528.202 554.941 528.904 555.648 529.229 556.72C529.503 557.807 529.27 558.784 528.529 559.649C528.147 560.044 527.688 560.322 527.152 560.485Z" fill="#FFF7E3"/>
<path d="M538.904 554.495C538.268 554.771 537.585 554.806 536.856 554.6C535.891 554.321 535.223 553.754 534.851 552.898C534.49 552.066 534.447 551.3 534.724 550.598C535.043 549.994 535.545 549.543 536.23 549.246C536.915 548.948 537.583 548.847 538.235 548.941C539.286 549.153 540.037 549.743 540.486 550.71C540.863 551.71 540.752 552.659 540.154 553.559C539.81 553.97 539.393 554.282 538.904 554.495ZM535.576 547.742C534.549 548.188 533.584 548.041 532.68 547.299C532.314 546.993 532.041 546.632 531.86 546.216C531.775 546.021 531.708 545.832 531.658 545.65C531.534 544.628 531.723 543.659 532.226 542.743C532.361 542.451 532.514 542.167 532.684 541.889C533.028 541.275 533.312 540.657 533.536 540.036C533.681 539.566 533.751 539.027 533.748 538.417C533.77 537.798 533.685 537.268 533.493 536.827L533.446 536.717C533.173 536.225 532.793 536.085 532.304 536.298C532.108 536.383 531.897 536.533 531.67 536.747C531.329 537.099 531.114 537.541 531.026 538.074C530.912 538.414 530.781 538.748 530.632 539.074C530.33 539.583 529.922 539.95 529.408 540.173C529.286 540.226 529.006 540.318 528.569 540.45C528.122 540.557 527.536 540.448 526.813 540.123C526.08 539.773 525.516 539.146 525.123 538.241C524.9 537.727 524.785 537.195 524.779 536.646C524.834 535.168 525.371 533.859 526.387 532.719C527.212 531.808 528.151 531.124 529.203 530.667C530.279 530.199 531.466 529.989 532.766 530.034C535.333 530.256 537.3 531.437 538.666 533.576L539.038 534.331C540.026 536.605 539.807 538.91 538.379 541.246C537.941 541.843 537.626 542.489 537.433 543.184C537.376 543.587 537.366 543.998 537.403 544.418C537.429 544.814 537.402 545.218 537.32 545.632C537.111 546.624 536.53 547.327 535.576 547.742Z" fill="#FFF7E3"/>
</g>
<defs>
<clipPath id="clip0_42_2">
<rect width="650" height="650" fill="white"/>
</clipPath>
</defs>
</svg>
