<svg width="1170" height="269" viewBox="0 0 1170 269" fill="none" xmlns="http://www.w3.org/2000/svg">
<path fill-rule="evenodd" clip-rule="evenodd" d="M0 89.6667H19.5C39 89.6667 78 89.6667 117 109.593C156 129.519 195 169.37 234 189.296C273 209.222 312 209.222 351 189.296C390 169.37 429 129.519 468 99.6296C507 69.7407 546 49.8148 585 49.8148C624 49.8148 663 69.7407 702 94.6481C741 119.556 780 149.444 819 144.463C858 139.481 897 99.6296 936 84.6852C975 69.7407 1014 79.7037 1053 69.7407C1092 59.7778 1131 29.8889 1150.5 14.9444L1170 0V269H1150.5C1131 269 1092 269 1053 269C1014 269 975 269 936 269C897 269 858 269 819 269C780 269 741 269 702 269C663 269 624 269 585 269C546 269 507 269 468 269C429 269 390 269 351 269C312 269 273 269 234 269C195 269 156 269 117 269C78 269 39 269 19.5 269H0V89.6667Z" fill="#F1CCAF"/>
</svg>
