<svg width="2127" height="338" viewBox="0 0 2127 338" fill="none" xmlns="http://www.w3.org/2000/svg">
<path d="M0 0H1170V285H0V0Z" fill="#F1CCAF"/>
<path d="M957 0H2127V285H957V0Z" fill="#F1CCAF"/>
<path fill-rule="evenodd" clip-rule="evenodd" d="M0 203.102L24.186 169.74C49.1279 136.378 97.5 68.9288 146.628 85.6098C195 102.291 244.128 203.102 292.5 242.991C341.628 282.155 390 259.672 439.128 220.508C487.5 180.619 536.628 124.774 585 130.576C634.128 136.378 682.5 203.102 731.628 225.585C780 248.068 829.128 225.585 877.5 192.223C926.628 158.861 975 113.895 1024.13 102.291C1072.5 91.4119 1121.63 113.895 1145.81 124.774L1170 136.378V338H1145.81C1121.63 338 1072.5 338 1024.13 338C975 338 926.628 338 877.5 338C829.128 338 780 338 731.628 338C682.5 338 634.128 338 585 338C536.628 338 487.5 338 439.128 338C390 338 341.628 338 292.5 338C244.128 338 195 338 146.628 338C97.5 338 49.1279 338 24.186 338H0V203.102Z" fill="#E6BFA0"/>
<path fill-rule="evenodd" clip-rule="evenodd" d="M2127 203.102L2102.81 169.74C2077.87 136.378 2029.5 68.9288 1980.37 85.6098C1932 102.291 1882.87 203.102 1834.5 242.991C1785.37 282.155 1737 259.672 1687.87 220.508C1639.5 180.619 1590.37 124.774 1542 130.576C1492.87 136.378 1444.5 203.102 1395.37 225.585C1347 248.068 1297.87 225.585 1249.5 192.223C1200.37 158.861 1152 113.895 1102.87 102.291C1054.5 91.4119 1005.37 113.895 981.186 124.774L957 136.378V338H981.186C1005.37 338 1054.5 338 1102.87 338C1152 338 1200.37 338 1249.5 338C1297.87 338 1347 338 1395.37 338C1444.5 338 1492.87 338 1542 338C1590.37 338 1639.5 338 1687.87 338C1737 338 1785.37 338 1834.5 338C1882.87 338 1932 338 1980.37 338C2029.5 338 2077.87 338 2102.81 338H2127V203.102Z" fill="#E6BFA0"/>
</svg>
