<svg width="2127" height="212" viewBox="0 0 2127 212" fill="none" xmlns="http://www.w3.org/2000/svg">
<path d="M0 0H1170V212H0V0Z" fill="#F1CCAF"/>
<path d="M957 0H2127V212H957V0Z" fill="#F1CCAF"/>
<path fill-rule="evenodd" clip-rule="evenodd" d="M0 161.237L26.8527 148.683C54.5446 136.129 108.25 110.747 162.795 117.024C216.5 123.301 271.045 161.237 324.75 176.248C379.295 190.985 433 182.525 487.545 167.787C541.25 152.777 595.795 131.762 649.5 133.945C704.045 136.129 757.75 161.237 812.295 169.698C866 178.158 920.545 169.698 974.25 157.143C1028.79 144.589 1082.5 127.668 1137.04 123.301C1190.75 119.208 1245.29 127.668 1272.15 131.762L1299 136.129V212H1272.15C1245.29 212 1190.75 212 1137.04 212C1082.5 212 1028.79 212 974.25 212C920.545 212 866 212 812.295 212C757.75 212 704.045 212 649.5 212C595.795 212 541.25 212 487.545 212C433 212 379.295 212 324.75 212C271.045 212 216.5 212 162.795 212C108.25 212 54.5446 212 26.8527 212H0V161.237Z" fill="#E6BFA0"/>
<path fill-rule="evenodd" clip-rule="evenodd" d="M2127 161.237L2106.04 148.683C2084.42 136.129 2042.5 110.747 1999.92 117.024C1958 123.301 1915.42 161.237 1873.5 176.248C1830.92 190.985 1789 182.525 1746.42 167.787C1704.5 152.777 1661.92 131.762 1620 133.945C1577.42 136.129 1535.5 161.237 1492.92 169.698C1451 178.158 1408.42 169.698 1366.5 157.143C1323.92 144.589 1282 127.668 1239.42 123.301C1197.5 119.208 1147.96 119.208 1127 123.301L1069 133.945L1113 212H1133.96C1154.92 212 1197.5 212 1239.42 212C1282 212 1323.92 212 1366.5 212C1408.42 212 1451 212 1492.92 212C1535.5 212 1577.42 212 1620 212C1661.92 212 1704.5 212 1746.42 212C1789 212 1830.92 212 1873.5 212C1915.42 212 1958 212 1999.92 212C2042.5 212 2084.42 212 2106.04 212H2127V161.237Z" fill="#E6BFA0"/>
</svg>
