<svg width="2130" height="212" viewBox="0 0 2130 212" fill="none" xmlns="http://www.w3.org/2000/svg">
<path d="M1 0H1171V212H1V0Z" fill="#F1CCAF"/>
<path d="M958 0H2128V212H958V0Z" fill="#F1CCAF"/>
<path fill-rule="evenodd" clip-rule="evenodd" d="M1 161.237L27.8527 148.683C55.5446 136.129 109.25 110.747 163.795 117.024C217.5 123.301 272.045 161.237 325.75 176.248C380.295 190.985 434 182.525 488.545 167.787C542.25 152.777 596.795 131.762 650.5 133.945C705.045 136.129 758.75 161.237 813.295 169.698C867 178.158 921.545 169.698 975.25 157.143C1029.79 144.589 1083.5 127.668 1138.04 123.301C1191.75 119.208 1246.29 127.668 1273.15 131.762L1300 136.129V212H1273.15C1246.29 212 1191.75 212 1138.04 212C1083.5 212 1029.79 212 975.25 212C921.545 212 867 212 813.295 212C758.75 212 705.045 212 650.5 212C596.795 212 542.25 212 488.545 212C434 212 380.295 212 325.75 212C272.045 212 217.5 212 163.795 212C109.25 212 55.5446 212 27.8527 212H1V161.237Z" fill="#E6BFA0"/>
<path fill-rule="evenodd" clip-rule="evenodd" d="M2128 161.237L2107.04 148.683C2085.42 136.129 2043.5 110.747 2000.92 117.024C1959 123.301 1916.42 161.237 1874.5 176.248C1831.92 190.985 1790 182.525 1747.42 167.787C1705.5 152.777 1662.92 131.762 1621 133.945C1578.42 136.129 1536.5 161.237 1493.92 169.698C1452 178.158 1409.42 169.698 1367.5 157.143C1324.92 144.589 1283 127.668 1240.42 123.301C1198.5 119.208 1148.96 119.208 1128 123.301L1070 133.945L1114 212H1134.96C1155.92 212 1198.5 212 1240.42 212C1283 212 1324.92 212 1367.5 212C1409.42 212 1452 212 1493.92 212C1536.5 212 1578.42 212 1621 212C1662.92 212 1705.5 212 1747.42 212C1790 212 1831.92 212 1874.5 212C1916.42 212 1959 212 2000.92 212C2043.5 212 2085.42 212 2107.04 212H2128V161.237Z" fill="#E6BFA0"/>
<path d="M1 161.5L50.5 139L79.5329 128.718C92.1437 124.251 105.183 121.103 118.443 119.325V119.325C132.439 117.447 146.796 117.123 160.867 118.324V118.324C173.803 119.428 186.78 121.823 199.248 125.443L211.5 129L262.5 151L314.5 172.5L327.023 175.753C344.282 180.236 362.005 182.684 379.833 183.048V183.048C394.576 183.348 409.314 182.222 423.841 179.684L485 169L568.5 145L592.31 140.614C614.355 136.553 636.812 135.189 659.186 136.55V136.55C675.033 137.515 690.767 139.843 706.214 143.508L742 152L783.405 162.665C799.772 166.881 816.468 169.693 833.313 171.071V171.071C853.055 172.686 872.909 172.324 892.578 169.991L951.5 163L1060 136L1073.87 133.603C1107.41 127.806 1124.18 124.907 1141.12 123.515C1158.07 122.123 1175.09 122.245 1209.13 122.49L1210.5 122.5V122.5C1230.81 124.282 1240.97 125.173 1251.05 126.602C1261.84 128.133 1272.56 130.125 1283.18 132.575C1293.09 134.862 1302.89 137.681 1322.49 143.319L1340.5 148.5L1392.55 162.597C1405.83 166.193 1419.38 168.643 1433.08 169.923V169.923C1454.92 171.965 1476.95 171.01 1498.53 167.085L1500.18 166.786C1514.04 164.266 1527.66 160.594 1540.9 155.806L1562.5 148L1590.97 139.96C1600.3 137.328 1609.88 135.704 1619.55 135.118V135.118C1631.79 134.376 1644.08 135.303 1656.08 137.873L1665.39 139.869C1675.12 141.954 1684.68 144.743 1694 148.216L1731 162L1762.06 172.245C1773.66 176.074 1785.59 178.858 1797.69 180.565L1803.67 181.408C1813.53 182.799 1823.51 183.179 1833.45 182.542V182.542C1849.38 181.521 1865.03 177.9 1879.78 171.824L1908.5 160L1947.51 137.983C1955.16 133.668 1963.14 129.98 1971.38 126.954L1982.51 122.868C1993.09 118.986 2004.26 117 2015.53 117V117C2024.14 117 2032.71 118.16 2041 120.45L2057.5 125L2090 139L2128.5 161" stroke="#431303" stroke-width="3"/>
</svg>
