<svg width="1170" height="338" viewBox="0 0 1170 338" fill="none" xmlns="http://www.w3.org/2000/svg">
<path d="M0 0H1170V285H0V0Z" fill="#F1CCAF"/>
<path fill-rule="evenodd" clip-rule="evenodd" d="M0 203.102L24.186 169.74C49.1279 136.378 97.5 68.9288 146.628 85.6098C195 102.291 244.128 203.102 292.5 242.991C341.628 282.155 390 259.672 439.128 220.508C487.5 180.619 536.628 124.774 585 130.576C634.128 136.378 682.5 203.102 731.628 225.585C780 248.068 829.128 225.585 877.5 192.223C926.628 158.861 975 113.895 1024.13 102.291C1072.5 91.4119 1121.63 113.895 1145.81 124.774L1170 136.378V338H1145.81C1121.63 338 1072.5 338 1024.13 338C975 338 926.628 338 877.5 338C829.128 338 780 338 731.628 338C682.5 338 634.128 338 585 338C536.628 338 487.5 338 439.128 338C390 338 341.628 338 292.5 338C244.128 338 195 338 146.628 338C97.5 338 49.1279 338 24.186 338H0V203.102Z" fill="#E6BFA0"/>
</svg>
